Geologisk-LightCut.ufo
<glyph name="percent" format="2">
  <advance width="2038"/>
  <unicode hex="0025"/>
  <outline>
    <contour>
      <point x="662" y="-30" type="line"/>
      <point x="1452" y="1390" type="line"/>
      <point x="1376" y="1430" type="line"/>
      <point x="586" y="16" type="line"/>
    </contour>
    <contour>
      <point x="464" y="710" type="curve" smooth="yes"/>
      <point x="664" y="710"/>
      <point x="826" y="870"/>
      <point x="826" y="1066" type="curve" smooth="yes"/>
      <point x="826" y="1260"/>
      <point x="664" y="1420"/>
      <point x="464" y="1420" type="curve" smooth="yes"/>
      <point x="264" y="1420"/>
      <point x="100" y="1260"/>
      <point x="100" y="1066" type="curve" smooth="yes"/>
      <point x="100" y="870"/>
      <point x="264" y="710"/>
    </contour>
    <contour>
      <point x="464" y="806" type="curve" smooth="yes"/>
      <point x="308" y="806"/>
      <point x="200" y="914"/>
      <point x="200" y="1066" type="curve" smooth="yes"/>
      <point x="200" y="1218"/>
      <point x="308" y="1324"/>
      <point x="464" y="1324" type="curve" smooth="yes"/>
      <point x="622" y="1324"/>
      <point x="726" y="1222"/>
      <point x="726" y="1066" type="curve" smooth="yes"/>
      <point x="726" y="910"/>
      <point x="622" y="806"/>
    </contour>
    <contour>
      <point x="1576" y="-20" type="curve" smooth="yes"/>
      <point x="1776" y="-20"/>
      <point x="1938" y="140"/>
      <point x="1938" y="336" type="curve" smooth="yes"/>
      <point x="1938" y="530"/>
      <point x="1776" y="690"/>
      <point x="1576" y="690" type="curve" smooth="yes"/>
      <point x="1376" y="690"/>
      <point x="1212" y="530"/>
      <point x="1212" y="336" type="curve" smooth="yes"/>
      <point x="1212" y="140"/>
      <point x="1376" y="-20"/>
    </contour>
    <contour>
      <point x="1576" y="76" type="curve" smooth="yes"/>
      <point x="1420" y="76"/>
      <point x="1312" y="184"/>
      <point x="1312" y="336" type="curve" smooth="yes"/>
      <point x="1312" y="488"/>
      <point x="1420" y="594"/>
      <point x="1576" y="594" type="curve" smooth="yes"/>
      <point x="1734" y="594"/>
      <point x="1838" y="492"/>
      <point x="1838" y="336" type="curve" smooth="yes"/>
      <point x="1838" y="180"/>
      <point x="1734" y="76"/>
    </contour>
  </outline>
</glyph>
<glyph name="ampersand" format="2">
  <advance width="1462"/>
  <unicode hex="0026"/>
  <outline>
    <contour>
      <point x="560" y="-30" type="curve" smooth="yes"/>
      <point x="730" y="-30"/>
      <point x="898" y="46"/>
      <point x="1038" y="186" type="curve"/>
      <point x="1216" y="0" type="line"/>
      <point x="1368" y="0" type="line"/>
      <point x="1104" y="274" type="line"/>
      <point x="1204" y="406"/>
      <point x="1290" y="570"/>
      <point x="1348" y="750" type="curve"/>
      <point x="1238" y="750" type="line"/>
      <point x="1180" y="578"/>
      <point x="1110" y="446"/>
      <point x="1034" y="348" type="curve"/>
      <point x="654" y="736" type="line"/>
      <point x="874" y="828"/>
      <point x="998" y="950"/>
      <point x="998" y="1108" type="curve" smooth="yes"/>
      <point x="998" y="1296"/>
      <point x="848" y="1430"/>
      <point x="642" y="1430" type="curve" smooth="yes"/>
      <point x="452" y="1430"/>
      <point x="290" y="1286"/>
      <point x="290" y="1114" type="curve" smooth="yes"/>
      <point x="290" y="986"/>
      <point x="334" y="908"/>
      <point x="482" y="764" type="curve"/>
      <point x="258" y="692"/>
      <point x="120" y="538"/>
      <point x="120" y="358" type="curve" smooth="yes"/>
      <point x="120" y="132"/>
      <point x="302" y="-30"/>
    </contour>
    <contour>
      <point x="562" y="78" type="curve" smooth="yes"/>
      <point x="362" y="78"/>
      <point x="240" y="186"/>
      <point x="240" y="358" type="curve" smooth="yes"/>
      <point x="240" y="508"/>
      <point x="350" y="628"/>
      <point x="550" y="692" type="curve"/>
      <point x="966" y="262" type="line"/>
      <point x="850" y="138"/>
      <point x="714" y="78"/>
    </contour>
    <contour>
      <point x="586" y="806" type="curve"/>
      <point x="452" y="938"/>
      <point x="410" y="1008"/>
      <point x="410" y="1110" type="curve" smooth="yes"/>
      <point x="410" y="1232"/>
      <point x="512" y="1322"/>
      <point x="646" y="1322" type="curve" smooth="yes"/>
      <point x="780" y="1322"/>
      <point x="878" y="1230"/>
      <point x="878" y="1104" type="curve" smooth="yes"/>
      <point x="878" y="978"/>
      <point x="780" y="876"/>
    </contour>
  </outline>
</glyph>
<glyph name="parenleft" format="2">
  <advance width="666"/>
  <unicode hex="0028"/>
  <outline>
    <contour>
      <point x="441" y="-228" type="curve"/>
      <point x="532" y="-228" type="line"/>
      <point x="375" y="27"/>
      <point x="296" y="364"/>
      <point x="296" y="696" type="curve" smooth="yes"/>
      <point x="296" y="1029"/>
      <point x="375" y="1361"/>
      <point x="532" y="1608" type="curve"/>
      <point x="441" y="1608" type="line"/>
      <point x="276" y="1342"/>
      <point x="194" y="1017"/>
      <point x="194" y="692" type="curve" smooth="yes"/>
      <point x="194" y="367"/>
      <point x="276" y="40"/>
    </contour>
  </outline>
</glyph>
<glyph name="parenright" format="2">
  <advance width="666"/>
  <unicode hex="0029"/>
  <outline>
    <contour>
      <point x="224" y="-430" type="line"/>
      <point x="390" y="-162"/>
      <point x="472" y="166"/>
      <point x="472" y="492" type="curve" smooth="yes"/>
      <point x="472" y="818"/>
      <point x="390" y="1144"/>
      <point x="224" y="1410" type="curve"/>
      <point x="144" y="1368" type="line"/>
      <point x="294" y="1132"/>
      <point x="370" y="814"/>
      <point x="370" y="496" type="curve" smooth="yes"/>
      <point x="370" y="178"/>
      <point x="294" y="-144"/>
      <point x="144" y="-388" type="curve"/>
    </contour>
  </outline>
</glyph>
<glyph name="comma" format="2">
  <advance width="500"/>
  <unicode hex="002C"/>
  <outline>
    <contour>
      <point x="144" y="-246" type="line"/>
      <point x="282" y="-158"/>
      <point x="358" y="-56"/>
      <point x="358" y="52" type="curve" smooth="yes"/>
      <point x="358" y="128"/>
      <point x="314" y="178"/>
      <point x="246" y="178" type="curve" smooth="yes"/>
      <point x="186" y="178"/>
      <point x="142" y="136"/>
      <point x="142" y="80" type="curve" smooth="yes"/>
      <point x="142" y="16"/>
      <point x="190" y="-28"/>
      <point x="252" y="-24" type="curve"/>
      <point x="244" y="-76"/>
      <point x="164" y="-138"/>
      <point x="86" y="-182" type="curve"/>
    </contour>
  </outline>
</glyph>
<glyph name="slash" format="2">
  <advance width="892"/>
  <unicode hex="002F"/>
  <outline>
    <contour>
      <point x="120" y="-430" type="line"/>
      <point x="872" y="1370" type="line"/>
      <point x="772" y="1410" type="line"/>
      <point x="20" y="-390" type="line"/>
    </contour>
  </outline>
</glyph>
<glyph name="one" format="2">
  <advance width="744"/>
  <unicode hex="0031"/>
  <outline>
    <contour>
      <point x="432" y="0" type="line"/>
      <point x="544" y="0" type="line"/>
      <point x="544" y="1430" type="line"/>
      <point x="534" y="1430" type="line"/>
      <point x="24" y="1234" type="line"/>
      <point x="24" y="1134" type="line"/>
      <point x="432" y="1288" type="line"/>
    </contour>
  </outline>
</glyph>
<glyph name="six" format="2">
  <advance width="1268"/>
  <unicode hex="0036"/>
  <outline>
    <contour>
      <point x="664" y="-30" type="curve" smooth="yes"/>
      <point x="960" y="-30"/>
      <point x="1168" y="178"/>
      <point x="1168" y="446" type="curve" smooth="yes"/>
      <point x="1168" y="709"/>
      <point x="956" y="892"/>
      <point x="688" y="892" type="curve" smooth="yes"/>
      <point x="500" y="892"/>
      <point x="336" y="799"/>
      <point x="250" y="655" type="curve"/>
      <point x="265" y="1042"/>
      <point x="535" y="1377"/>
      <point x="1044" y="1309" type="curve"/>
      <point x="1044" y="1423" type="line"/>
      <point x="435" y="1485"/>
      <point x="140" y="1070"/>
      <point x="140" y="606" type="curve" smooth="yes"/>
      <point x="140" y="196"/>
      <point x="354" y="-30"/>
    </contour>
    <contour>
      <point x="664" y="84" type="curve" smooth="yes"/>
      <point x="442" y="84"/>
      <point x="284" y="228"/>
      <point x="284" y="430" type="curve" smooth="yes"/>
      <point x="284" y="628"/>
      <point x="450" y="778"/>
      <point x="664" y="778" type="curve" smooth="yes"/>
      <point x="878" y="778"/>
      <point x="1044" y="628"/>
      <point x="1044" y="430" type="curve" smooth="yes"/>
      <point x="1044" y="228"/>
      <point x="886" y="84"/>
    </contour>
  </outline>
</glyph>
<glyph name="seven" format="2">
  <advance width="1076"/>
  <unicode hex="0037"/>
  <outline>
    <contour>
      <point x="200" y="0" type="line"/>
      <point x="330" y="0" type="line"/>
      <point x="968" y="1300" type="line"/>
      <point x="968" y="1400" type="line"/>
      <point x="126" y="1400" type="line"/>
      <point x="102" y="1292" type="line"/>
      <point x="838" y="1292" type="line"/>
    </contour>
  </outline>
</glyph>
<glyph name="nine" format="2">
  <advance width="1238"/>
  <unicode hex="0039"/>
  <outline>
    <contour>
      <point x="270" y="-30" type="line"/>
      <point x="758" y="42"/>
      <point x="1118" y="386"/>
      <point x="1118" y="860" type="curve" smooth="yes"/>
      <point x="1118" y="1226"/>
      <point x="904" y="1430"/>
      <point x="610" y="1430" type="curve" smooth="yes"/>
      <point x="326" y="1430"/>
      <point x="120" y="1226"/>
      <point x="120" y="968" type="curve" smooth="yes"/>
      <point x="120" y="720"/>
      <point x="326" y="546"/>
      <point x="586" y="546" type="curve" smooth="yes"/>
      <point x="754" y="546"/>
      <point x="904" y="626"/>
      <point x="986" y="754" type="curve"/>
      <point x="940" y="428"/>
      <point x="714" y="130"/>
      <point x="270" y="72" type="curve"/>
    </contour>
    <contour>
      <point x="610" y="648" type="curve" smooth="yes"/>
      <point x="404" y="648"/>
      <point x="244" y="792"/>
      <point x="244" y="982" type="curve" smooth="yes"/>
      <point x="244" y="1176"/>
      <point x="396" y="1316"/>
      <point x="610" y="1316" type="curve" smooth="yes"/>
      <point x="824" y="1316"/>
      <point x="976" y="1176"/>
      <point x="976" y="982" type="curve" smooth="yes"/>
      <point x="976" y="792"/>
      <point x="816" y="648"/>
    </contour>
  </outline>
</glyph>
<glyph name="colon" format="2">
  <advance width="560"/>
  <unicode hex="003A"/>
  <outline>
    <contour>
      <point x="280" y="792" type="curve" smooth="yes"/>
      <point x="342" y="792"/>
      <point x="390" y="836"/>
      <point x="390" y="896" type="curve" smooth="yes"/>
      <point x="390" y="956"/>
      <point x="342" y="1000"/>
      <point x="280" y="1000" type="curve" smooth="yes"/>
      <point x="218" y="1000"/>
      <point x="170" y="956"/>
      <point x="170" y="896" type="curve" smooth="yes"/>
      <point x="170" y="836"/>
      <point x="218" y="792"/>
    </contour>
    <contour>
      <point x="280" y="-30" type="curve" smooth="yes"/>
      <point x="342" y="-30"/>
      <point x="390" y="14"/>
      <point x="390" y="74" type="curve" smooth="yes"/>
      <point x="390" y="134"/>
      <point x="342" y="178"/>
      <point x="280" y="178" type="curve" smooth="yes"/>
      <point x="218" y="178"/>
      <point x="170" y="134"/>
      <point x="170" y="74" type="curve" smooth="yes"/>
      <point x="170" y="14"/>
      <point x="218" y="-30"/>
    </contour>
  </outline>
</glyph>
<glyph name="semicolon" format="2">
  <advance width="560"/>
  <unicode hex="003B"/>
  <outline>
    <contour>
      <point x="280" y="792" type="curve" smooth="yes"/>
      <point x="342" y="792"/>
      <point x="390" y="836"/>
      <point x="390" y="896" type="curve" smooth="yes"/>
      <point x="390" y="956"/>
      <point x="342" y="1000"/>
      <point x="280" y="1000" type="curve" smooth="yes"/>
      <point x="218" y="1000"/>
      <point x="170" y="956"/>
      <point x="170" y="896" type="curve" smooth="yes"/>
      <point x="170" y="836"/>
      <point x="218" y="792"/>
    </contour>
    <contour>
      <point x="124" y="-236" type="line"/>
      <point x="316" y="-231"/>
      <point x="393" y="-90"/>
      <point x="393" y="37" type="curve" smooth="yes"/>
      <point x="393" y="121"/>
      <point x="347" y="178"/>
      <point x="276" y="178" type="curve" smooth="yes"/>
      <point x="216" y="178"/>
      <point x="172" y="136"/>
      <point x="172" y="80" type="curve" smooth="yes"/>
      <point x="172" y="16"/>
      <point x="233" y="-27"/>
      <point x="302" y="-11" type="curve"/>
      <point x="300" y="-85"/>
      <point x="230" y="-161"/>
      <point x="124" y="-158" type="curve"/>
    </contour>
  </outline>
</glyph>
<glyph name="C" format="2">
  <advance width="1374"/>
  <unicode hex="0043"/>
  <anchor x="786" y="0" name="bottom"/>
  <anchor x="786" y="1400" name="top"/>
  <outline>
    <contour>
      <point x="826" y="-30" type="curve" smooth="yes"/>
      <point x="1000" y="-30"/>
      <point x="1152" y="10"/>
      <point x="1286" y="104" type="curve"/>
      <point x="1286" y="230" type="line"/>
      <point x="1160" y="124"/>
      <point x="1014" y="82"/>
      <point x="850" y="82" type="curve" smooth="yes"/>
      <point x="474" y="82"/>
      <point x="232" y="308"/>
      <point x="232" y="702" type="curve" smooth="yes"/>
      <point x="232" y="1082"/>
      <point x="472" y="1320"/>
      <point x="836" y="1320" type="curve" smooth="yes"/>
      <point x="1002" y="1320"/>
      <point x="1140" y="1280"/>
      <point x="1250" y="1198" type="curve"/>
      <point x="1250" y="1314" type="line"/>
      <point x="1144" y="1388"/>
      <point x="1002" y="1430"/>
      <point x="826" y="1430" type="curve" smooth="yes"/>
      <point x="410" y="1430"/>
      <point x="112" y="1122"/>
      <point x="112" y="702" type="curve" smooth="yes"/>
      <point x="112" y="264"/>
      <point x="392" y="-30"/>
    </contour>
  </outline>
</glyph>
<glyph name="P" format="2">
  <advance width="1240"/>
  <unicode hex="0050"/>
  <outline>
    <contour>
      <point x="200" y="0" type="line"/>
      <point x="316" y="0" type="line"/>
      <point x="316" y="604" type="line"/>
      <point x="650" y="604" type="line" smooth="yes"/>
      <point x="958" y="604"/>
      <point x="1130" y="742"/>
      <point x="1130" y="1000" type="curve" smooth="yes"/>
      <point x="1130" y="1250"/>
      <point x="936" y="1400"/>
      <point x="652" y="1400" type="curve" smooth="yes"/>
      <point x="200" y="1400" type="line"/>
    </contour>
    <contour>
      <point x="316" y="712" type="line"/>
      <point x="316" y="1292" type="line"/>
      <point x="666" y="1292" type="line" smooth="yes"/>
      <point x="882" y="1292"/>
      <point x="1014" y="1176"/>
      <point x="1014" y="996" type="curve" smooth="yes"/>
      <point x="1014" y="810"/>
      <point x="886" y="712"/>
      <point x="664" y="712" type="curve" smooth="yes"/>
    </contour>
  </outline>
</glyph>
<glyph name="S" format="2">
  <advance width="1234"/>
  <unicode hex="0053"/>
  <anchor x="622" y="0" name="bottom"/>
  <anchor x="636" y="1400" name="top"/>
  <outline>
    <contour>
      <point x="602" y="-30" type="curve" smooth="yes"/>
      <point x="920" y="-30"/>
      <point x="1090" y="128"/>
      <point x="1090" y="360" type="curve" smooth="yes"/>
      <point x="1090" y="548"/>
      <point x="982" y="662"/>
      <point x="768" y="726" type="curve" smooth="yes"/>
      <point x="586" y="780" type="line" smooth="yes"/>
      <point x="360" y="846"/>
      <point x="292" y="926"/>
      <point x="292" y="1050" type="curve" smooth="yes"/>
      <point x="292" y="1228"/>
      <point x="436" y="1324"/>
      <point x="644" y="1324" type="curve" smooth="yes"/>
      <point x="794" y="1324"/>
      <point x="944" y="1282"/>
      <point x="1050" y="1208" type="curve"/>
      <point x="1050" y="1329" type="line"/>
      <point x="951" y="1391"/>
      <point x="817" y="1430"/>
      <point x="666" y="1430" type="curve" smooth="yes"/>
      <point x="382" y="1430"/>
      <point x="184" y="1284"/>
      <point x="184" y="1042" type="curve" smooth="yes"/>
      <point x="184" y="864"/>
      <point x="292" y="752"/>
      <point x="516" y="686" type="curve" smooth="yes"/>
      <point x="684" y="636" type="line" smooth="yes"/>
      <point x="910" y="568"/>
      <point x="982" y="480"/>
      <point x="982" y="352" type="curve" smooth="yes"/>
      <point x="982" y="172"/>
      <point x="832" y="78"/>
      <point x="604" y="78" type="curve" smooth="yes"/>
      <point x="432" y="78"/>
      <point x="276" y="122"/>
      <point x="156" y="204" type="curve"/>
      <point x="156" y="78" type="line"/>
      <point x="274" y="7"/>
      <point x="439" y="-30"/>
    </contour>
  </outline>
</glyph>
<glyph name="T" format="2">
  <advance width="1084"/>
  <unicode hex="0054"/>
  <anchor x="542" y="722" name="bar"/>
  <anchor x="542" y="0" name="bottom"/>
  <anchor x="542" y="1400" name="top"/>
  <outline>
    <contour>
      <point x="484" y="0" type="line"/>
      <point x="600" y="0" type="line"/>
      <point x="600" y="1292" type="line"/>
      <point x="1014" y="1292" type="line"/>
      <point x="1014" y="1400" type="line"/>
      <point x="82" y="1400" type="line"/>
      <point x="58" y="1292" type="line"/>
      <point x="484" y="1292" type="line"/>
    </contour>
  </outline>
</glyph>
<glyph name="W" format="2">
  <advance width="2000"/>
  <unicode hex="0057"/>
  <anchor x="1002" y="1400" name="top"/>
  <outline>
    <contour>
      <point x="482" y="0" type="line"/>
      <point x="630" y="0" type="line"/>
      <point x="1004" y="1218" type="line"/>
      <point x="1372" y="0" type="line"/>
      <point x="1520" y="0" type="line"/>
      <point x="1936" y="1400" type="line"/>
      <point x="1814" y="1400" type="line"/>
      <point x="1446" y="128" type="line"/>
      <point x="1070" y="1400" type="line"/>
      <point x="936" y="1400" type="line"/>
      <point x="558" y="126" type="line"/>
      <point x="190" y="1400" type="line"/>
      <point x="64" y="1400" type="line"/>
    </contour>
  </outline>
</glyph>
<glyph name="bracketleft" format="2">
  <advance width="666"/>
  <unicode hex="005B"/>
  <outline>
    <contour>
      <point x="224" y="-420" type="line"/>
      <point x="532" y="-420" type="line"/>
      <point x="532" y="-324" type="line"/>
      <point x="324" y="-324" type="line"/>
      <point x="324" y="1304" type="line"/>
      <point x="532" y="1304" type="line"/>
      <point x="532" y="1400" type="line"/>
      <point x="224" y="1400" type="line"/>
    </contour>
  </outline>
</glyph>
<glyph name="underscore" format="2">
  <advance width="1060"/>
  <unicode hex="005F"/>
  <outline>
    <contour>
      <point x="30" y="-282" type="line"/>
      <point x="1030" y="-282" type="line"/>
      <point x="1030" y="-190" type="line"/>
      <point x="30" y="-190" type="line"/>
    </contour>
  </outline>
</glyph>
<glyph name="c" format="2">
  <advance width="960"/>
  <unicode hex="0063"/>
  <anchor x="554" y="0" name="bottom"/>
  <anchor x="566" y="960" name="top"/>
  <outline>
    <contour>
      <point x="594" y="-30" type="curve" smooth="yes"/>
      <point x="696" y="-30"/>
      <point x="786" y="-2"/>
      <point x="870" y="50" type="curve"/>
      <point x="870" y="174" type="line"/>
      <point x="816" y="120"/>
      <point x="712" y="78"/>
      <point x="600" y="78" type="curve" smooth="yes"/>
      <point x="354" y="78"/>
      <point x="200" y="230"/>
      <point x="200" y="482" type="curve" smooth="yes"/>
      <point x="200" y="734"/>
      <point x="356" y="882"/>
      <point x="602" y="882" type="curve" smooth="yes"/>
      <point x="702" y="882"/>
      <point x="794" y="856"/>
      <point x="856" y="808" type="curve"/>
      <point x="856" y="930" type="line"/>
      <point x="782" y="972"/>
      <point x="702" y="990"/>
      <point x="610" y="990" type="curve" smooth="yes"/>
      <point x="302" y="990"/>
      <point x="80" y="778"/>
      <point x="80" y="480" type="curve" smooth="yes"/>
      <point x="80" y="186"/>
      <point x="292" y="-30"/>
    </contour>
  </outline>
</glyph>
<glyph name="e" format="2">
  <advance width="1101"/>
  <unicode hex="0065"/>
  <anchor x="556" y="0" name="bottom"/>
  <anchor x="880" y="0" name="ogonek"/>
  <anchor x="572" y="960" name="top"/>
  <outline>
    <contour>
      <point x="610" y="-30" type="curve" smooth="yes"/>
      <point x="725" y="-30"/>
      <point x="849" y="-2"/>
      <point x="948" y="59" type="curve"/>
      <point x="948" y="184" type="line"/>
      <point x="864" y="116"/>
      <point x="742" y="78"/>
      <point x="624" y="78" type="curve" smooth="yes"/>
      <point x="356" y="78"/>
      <point x="192" y="234"/>
      <point x="204" y="468" type="curve"/>
      <point x="1018" y="468" type="line"/>
      <point x="1046" y="764"/>
      <point x="868" y="990"/>
      <point x="572" y="990" type="curve" smooth="yes"/>
      <point x="292" y="990"/>
      <point x="80" y="770"/>
      <point x="80" y="476" type="curve" smooth="yes"/>
      <point x="80" y="174"/>
      <point x="298" y="-30"/>
    </contour>
    <contour>
      <point x="208" y="572" type="line"/>
      <point x="232" y="768"/>
      <point x="370" y="882"/>
      <point x="572" y="882" type="curve" smooth="yes"/>
      <point x="780" y="882"/>
      <point x="888" y="768"/>
      <point x="898" y="572" type="curve"/>
    </contour>
  </outline>
</glyph>
<glyph name="f" format="2">
  <advance width="694"/>
  <unicode hex="0066"/>
  <outline>
    <contour>
      <point x="280" y="0" type="line"/>
      <point x="390" y="0" type="line"/>
      <point x="390" y="856" type="line"/>
      <point x="660" y="856" type="line"/>
      <point x="660" y="960" type="line"/>
      <point x="390" y="960" type="line"/>
      <point x="390" y="1190" type="line" smooth="yes"/>
      <point x="390" y="1320"/>
      <point x="458" y="1362"/>
      <point x="550" y="1362" type="curve" smooth="yes"/>
      <point x="584" y="1362"/>
      <point x="622" y="1354"/>
      <point x="662" y="1334" type="curve"/>
      <point x="662" y="1448" type="line"/>
      <point x="632" y="1462"/>
      <point x="596" y="1470"/>
      <point x="548" y="1470" type="curve" smooth="yes"/>
      <point x="386" y="1470"/>
      <point x="280" y="1368"/>
      <point x="280" y="1192" type="curve" smooth="yes"/>
    </contour>
    <contour>
      <point x="80" y="856" type="line"/>
      <point x="332" y="856" type="line"/>
      <point x="332" y="980" type="line"/>
      <point x="80" y="896" type="line"/>
    </contour>
  </outline>
</glyph>
<glyph name="h" format="2">
  <advance width="1154"/>
  <unicode hex="0068"/>
  <anchor x="342" y="1204" name="bar"/>
  <anchor x="226" y="1440" name="top"/>
  <outline>
    <contour>
      <point x="170" y="0" type="line"/>
      <point x="282" y="0" type="line"/>
      <point x="282" y="570" type="line" smooth="yes"/>
      <point x="282" y="756"/>
      <point x="420" y="882"/>
      <point x="592" y="882" type="curve" smooth="yes"/>
      <point x="768" y="882"/>
      <point x="882" y="772"/>
      <point x="882" y="612" type="curve" smooth="yes"/>
      <point x="882" y="0" type="line"/>
      <point x="994" y="0" type="line"/>
      <point x="994" y="646" type="line" smooth="yes"/>
      <point x="994" y="808"/>
      <point x="866" y="990"/>
      <point x="612" y="990" type="curve" smooth="yes"/>
      <point x="482" y="990"/>
      <point x="348" y="938"/>
      <point x="260" y="802" type="curve"/>
      <point x="282" y="784" type="line"/>
      <point x="282" y="1480" type="line"/>
      <point x="170" y="1338" type="line"/>
    </contour>
  </outline>
</glyph>
<glyph name="p" format="2">
  <advance width="1254"/>
  <unicode hex="0070"/>
  <outline>
    <contour>
      <point x="170" y="-420" type="line"/>
      <point x="282" y="-420" type="line"/>
      <point x="282" y="168" type="line"/>
      <point x="366" y="50"/>
      <point x="498" y="-30"/>
      <point x="688" y="-30" type="curve" smooth="yes"/>
      <point x="978" y="-30"/>
      <point x="1174" y="202"/>
      <point x="1174" y="480" type="curve" smooth="yes"/>
      <point x="1174" y="758"/>
      <point x="978" y="990"/>
      <point x="688" y="990" type="curve" smooth="yes"/>
      <point x="484" y="990"/>
      <point x="366" y="908"/>
      <point x="282" y="798" type="curve"/>
      <point x="282" y="1000" type="line"/>
      <point x="170" y="860" type="line"/>
    </contour>
    <contour>
      <point x="668" y="78" type="curve" smooth="yes"/>
      <point x="442" y="78"/>
      <point x="282" y="234"/>
      <point x="282" y="480" type="curve" smooth="yes"/>
      <point x="282" y="726"/>
      <point x="442" y="882"/>
      <point x="668" y="882" type="curve" smooth="yes"/>
      <point x="894" y="882"/>
      <point x="1054" y="726"/>
      <point x="1054" y="480" type="curve" smooth="yes"/>
      <point x="1054" y="234"/>
      <point x="894" y="78"/>
    </contour>
  </outline>
</glyph>
<glyph name="r" format="2">
  <advance width="756"/>
  <unicode hex="0072"/>
  <anchor x="282" y="0" name="bottom"/>
  <anchor x="442" y="960" name="top"/>
  <outline>
    <contour>
      <point x="170" y="0" type="line"/>
      <point x="282" y="0" type="line"/>
      <point x="282" y="558" type="line" smooth="yes"/>
      <point x="282" y="746"/>
      <point x="414" y="874"/>
      <point x="598" y="874" type="curve" smooth="yes"/>
      <point x="630" y="874"/>
      <point x="662" y="870"/>
      <point x="696" y="862" type="curve"/>
      <point x="696" y="984" type="line"/>
      <point x="667" y="988"/>
      <point x="637" y="990"/>
      <point x="610" y="990" type="curve" smooth="yes"/>
      <point x="484" y="990"/>
      <point x="370" y="946"/>
      <point x="282" y="806" type="curve"/>
      <point x="282" y="1000" type="line"/>
      <point x="170" y="860" type="line"/>
    </contour>
  </outline>
</glyph>
<glyph name="t" format="2">
  <advance width="818"/>
  <unicode hex="0074"/>
  <anchor x="390" y="520" name="bar"/>
  <anchor x="512" y="0" name="bottom"/>
  <anchor x="390" y="1440" name="caron"/>
  <outline>
    <contour>
      <point x="552" y="-30" type="curve" smooth="yes"/>
      <point x="596" y="-30"/>
      <point x="644" y="-22"/>
      <point x="688" y="-6" type="curve"/>
      <point x="688" y="108" type="line"/>
      <point x="656" y="92"/>
      <point x="614" y="80"/>
      <point x="562" y="80" type="curve" smooth="yes"/>
      <point x="446" y="80"/>
      <point x="390" y="140"/>
      <point x="390" y="310" type="curve" smooth="yes"/>
      <point x="390" y="856" type="line"/>
      <point x="700" y="856" type="line"/>
      <point x="700" y="960" type="line"/>
      <point x="390" y="960" type="line"/>
      <point x="390" y="1246" type="line"/>
      <point x="278" y="1246" type="line"/>
      <point x="278" y="270" type="line" smooth="yes"/>
      <point x="278" y="62"/>
      <point x="390" y="-30"/>
    </contour>
    <contour>
      <point x="60" y="856" type="line"/>
      <point x="312" y="856" type="line"/>
      <point x="312" y="980" type="line"/>
      <point x="60" y="896" type="line"/>
    </contour>
  </outline>
</glyph>
<glyph name="x" format="2">
  <advance width="894"/>
  <unicode hex="0078"/>
  <outline>
    <contour>
      <point x="28" y="0" type="line"/>
      <point x="164" y="0" type="line"/>
      <point x="446" y="408" type="line"/>
      <point x="722" y="0" type="line"/>
      <point x="866" y="0" type="line"/>
      <point x="518" y="498" type="line"/>
      <point x="834" y="960" type="line"/>
      <point x="700" y="960" type="line"/>
      <point x="450" y="582" type="line"/>
      <point x="192" y="960" type="line"/>
      <point x="50" y="960" type="line"/>
      <point x="378" y="492" type="line"/>
    </contour>
  </outline>
</glyph>
<glyph name="y" format="2">
  <advance width="936"/>
  <unicode hex="0079"/>
  <anchor x="704" y="0" name="bottom"/>
  <anchor x="454" y="960" name="top"/>
  <outline>
    <contour>
      <point x="160" y="-450" type="curve" smooth="yes"/>
      <point x="300" y="-450"/>
      <point x="390" y="-400"/>
      <point x="472" y="-184" type="curve" smooth="yes"/>
      <point x="904" y="960" type="line"/>
      <point x="784" y="960" type="line"/>
      <point x="470" y="124" type="line"/>
      <point x="148" y="960" type="line"/>
      <point x="22" y="960" type="line"/>
      <point x="406" y="-28" type="line"/>
      <point x="356" y="-172" type="line" smooth="yes"/>
      <point x="316" y="-286"/>
      <point x="270" y="-342"/>
      <point x="158" y="-342" type="curve" smooth="yes"/>
      <point x="124" y="-342"/>
      <point x="74" y="-330"/>
      <point x="34" y="-300" type="curve"/>
      <point x="34" y="-420" type="line"/>
      <point x="79" y="-443"/>
      <point x="119" y="-450"/>
    </contour>
  </outline>
</glyph>
<glyph name="braceright" format="2">
  <advance width="666"/>
  <unicode hex="007D"/>
  <outline>
    <contour>
      <point x="134" y="-424" type="line"/>
      <point x="340" y="-456"/>
      <point x="444" y="-366"/>
      <point x="424" y="-204" type="curve" smooth="yes"/>
      <point x="362" y="278" type="line" smooth="yes"/>
      <point x="344" y="416"/>
      <point x="368" y="444"/>
      <point x="532" y="444" type="curve"/>
      <point x="532" y="540" type="line"/>
      <point x="368" y="540"/>
      <point x="344" y="568"/>
      <point x="362" y="704" type="curve" smooth="yes"/>
      <point x="422" y="1180" type="line" smooth="yes"/>
      <point x="442" y="1344"/>
      <point x="336" y="1436"/>
      <point x="134" y="1404" type="curve"/>
      <point x="134" y="1308" type="line"/>
      <point x="278" y="1322"/>
      <point x="322" y="1280"/>
      <point x="310" y="1174" type="curve" smooth="yes"/>
      <point x="256" y="720" type="line" smooth="yes"/>
      <point x="238" y="576"/>
      <point x="272" y="512"/>
      <point x="380" y="492" type="curve"/>
      <point x="380" y="490" type="line"/>
      <point x="270" y="468"/>
      <point x="238" y="406"/>
      <point x="256" y="262" type="curve" smooth="yes"/>
      <point x="310" y="-194" type="line" smooth="yes"/>
      <point x="322" y="-302"/>
      <point x="280" y="-342"/>
      <point x="134" y="-328" type="curve"/>
    </contour>
  </outline>
</glyph>
<glyph name="asciitilde" format="2">
  <advance width="1296"/>
  <unicode hex="007E"/>
  <outline>
    <contour>
      <point x="880" y="540" type="curve" smooth="yes"/>
      <point x="965" y="540"/>
      <point x="1040" y="566"/>
      <point x="1116" y="637" type="curve"/>
      <point x="1116" y="752" type="line"/>
      <point x="1050" y="684"/>
      <point x="968" y="636"/>
      <point x="880" y="636" type="curve" smooth="yes"/>
      <point x="750" y="636"/>
      <point x="588" y="784"/>
      <point x="416" y="784" type="curve" smooth="yes"/>
      <point x="328" y="784"/>
      <point x="254" y="756"/>
      <point x="180" y="688" type="curve"/>
      <point x="180" y="580" type="line"/>
      <point x="246" y="646"/>
      <point x="328" y="688"/>
      <point x="416" y="688" type="curve" smooth="yes"/>
      <point x="544" y="688"/>
      <point x="712" y="540"/>
    </contour>
  </outline>
</glyph>
<glyph name="yen" format="2">
  <advance width="1296"/>
  <unicode hex="00A5"/>
  <outline>
    <contour>
      <point x="592" y="0" type="line"/>
      <point x="704" y="0" type="line"/>
      <point x="704" y="318" type="line"/>
      <point x="1098" y="318" type="line"/>
      <point x="1098" y="418" type="line"/>
      <point x="704" y="418" type="line"/>
      <point x="704" y="626" type="line"/>
      <point x="1098" y="626" type="line"/>
      <point x="1098" y="726" type="line"/>
      <point x="776" y="726" type="line"/>
      <point x="1194" y="1400" type="line"/>
      <point x="1072" y="1400" type="line"/>
      <point x="646" y="728" type="line"/>
      <point x="230" y="1400" type="line"/>
      <point x="102" y="1400" type="line"/>
      <point x="522" y="726" type="line"/>
      <point x="198" y="726" type="line"/>
      <point x="198" y="626" type="line"/>
      <point x="592" y="626" type="line"/>
      <point x="592" y="418" type="line"/>
      <point x="198" y="418" type="line"/>
      <point x="198" y="318" type="line"/>
      <point x="592" y="318" type="line"/>
    </contour>
  </outline>
</glyph>
<glyph name="ordfeminine" format="2">
  <advance width="770"/>
  <unicode hex="00AA"/>
  <guideline x="211" y="450" angle="0"/>
  <anchor x="368" y="722" name="bottom"/>
  <anchor x="646" y="722" name="ogonek"/>
  <anchor x="368" y="1354" name="top"/>
  <outline>
    <contour>
      <point x="318" y="702" type="curve" smooth="yes"/>
      <point x="418" y="702"/>
      <point x="504" y="738"/>
      <point x="548" y="802" type="curve"/>
      <point x="548" y="722" type="line"/>
      <point x="646" y="722" type="line"/>
      <point x="646" y="1138" type="line" smooth="yes"/>
      <point x="646" y="1296"/>
      <point x="550" y="1380"/>
      <point x="370" y="1380" type="curve" smooth="yes"/>
      <point x="282" y="1380"/>
      <point x="186" y="1356"/>
      <point x="102" y="1286" type="curve"/>
      <point x="144" y="1366" type="line"/>
      <point x="144" y="1226" type="line"/>
      <point x="214" y="1272"/>
      <point x="288" y="1290"/>
      <point x="360" y="1290" type="curve" smooth="yes"/>
      <point x="480" y="1290"/>
      <point x="544" y="1232"/>
      <point x="544" y="1138" type="curve" smooth="yes"/>
      <point x="544" y="954" type="line" smooth="yes"/>
      <point x="544" y="860"/>
      <point x="456" y="790"/>
      <point x="340" y="790" type="curve" smooth="yes"/>
      <point x="248" y="790"/>
      <point x="190" y="832"/>
      <point x="190" y="904" type="curve" smooth="yes"/>
      <point x="190" y="992"/>
      <point x="300" y="1050"/>
      <point x="580" y="1014" type="curve"/>
      <point x="576" y="1094" type="line"/>
      <point x="224" y="1130"/>
      <point x="92" y="1034"/>
      <point x="92" y="902" type="curve" smooth="yes"/>
      <point x="92" y="780"/>
      <point x="182" y="702"/>
    </contour>
  </outline>
</glyph>
<glyph name="twosuperior" format="2">
  <advance width="824"/>
  <unicode hex="00B2"/>
  <guideline x="211" y="450" angle="0"/>
  <outline>
    <contour>
      <point x="108" y="722" type="line"/>
      <point x="712" y="722" type="line"/>
      <point x="732" y="814" type="line"/>
      <point x="244" y="814" type="line"/>
      <point x="420" y="970" type="line" smooth="yes"/>
      <point x="636" y="1160"/>
      <point x="700" y="1270"/>
      <point x="700" y="1386" type="curve" smooth="yes"/>
      <point x="700" y="1548"/>
      <point x="572" y="1652"/>
      <point x="388" y="1652" type="curve" smooth="yes"/>
      <point x="301" y="1652"/>
      <point x="221" y="1628"/>
      <point x="156" y="1582" type="curve"/>
      <point x="156" y="1484" type="line"/>
      <point x="216" y="1536"/>
      <point x="300" y="1558"/>
      <point x="372" y="1558" type="curve" smooth="yes"/>
      <point x="512" y="1558"/>
      <point x="598" y="1490"/>
      <point x="598" y="1380" type="curve" smooth="yes"/>
      <point x="598" y="1266"/>
      <point x="512" y="1164"/>
      <point x="314" y="988" type="curve" smooth="yes"/>
      <point x="108" y="804" type="line"/>
    </contour>
  </outline>
</glyph>
<glyph name="threesuperior" format="2">
  <advance width="816"/>
  <unicode hex="00B3"/>
  <outline>
    <contour>
      <point x="372" y="702" type="curve" smooth="yes"/>
      <point x="568" y="702"/>
      <point x="708" y="816"/>
      <point x="708" y="988" type="curve" smooth="yes"/>
      <point x="708" y="1174"/>
      <point x="542" y="1264"/>
      <point x="352" y="1254" type="curve"/>
      <point x="666" y="1548" type="line"/>
      <point x="666" y="1632" type="line"/>
      <point x="98" y="1632" type="line"/>
      <point x="78" y="1540" type="line"/>
      <point x="532" y="1540" type="line"/>
      <point x="208" y="1240" type="line"/>
      <point x="242" y="1168" type="line"/>
      <point x="280" y="1176"/>
      <point x="322" y="1180"/>
      <point x="354" y="1180" type="curve" smooth="yes"/>
      <point x="504" y="1180"/>
      <point x="602" y="1110"/>
      <point x="602" y="992" type="curve" smooth="yes"/>
      <point x="602" y="874"/>
      <point x="510" y="798"/>
      <point x="366" y="798" type="curve" smooth="yes"/>
      <point x="278" y="798"/>
      <point x="172" y="828"/>
      <point x="108" y="878" type="curve"/>
      <point x="108" y="769" type="line"/>
      <point x="174" y="729"/>
      <point x="273" y="702"/>
    </contour>
  </outline>
</glyph>
<glyph name="Hbar" format="2">
  <advance width="1476"/>
  <unicode hex="0126"/>
  <outline>
    <contour>
      <point x="1140" y="0" type="line"/>
      <point x="1256" y="0" type="line"/>
      <point x="1256" y="1400" type="line"/>
      <point x="1140" y="1400" type="line"/>
    </contour>
    <contour>
      <point x="220" y="0" type="line"/>
      <point x="336" y="0" type="line"/>
      <point x="336" y="1400" type="line"/>
      <point x="220" y="1400" type="line"/>
    </contour>
    <contour>
      <point x="310" y="658" type="line"/>
      <point x="1168" y="658" type="line"/>
      <point x="1168" y="766" type="line"/>
      <point x="310" y="766" type="line"/>
    </contour>
    <contour>
      <point x="20" y="1030" type="line"/>
      <point x="1456" y="1030" type="line"/>
      <point x="1456" y="1118" type="line"/>
      <point x="20" y="1118" type="line"/>
    </contour>
  </outline>
</glyph>
<glyph name="idotless" format="2">
  <advance width="452"/>
  <unicode hex="0131"/>
  <anchor x="226" y="0" name="bottom"/>
  <anchor x="282" y="0" name="ogonek"/>
  <anchor x="226" y="960" name="top"/>
  <outline>
    <contour>
      <point x="170" y="0" type="line"/>
      <point x="282" y="0" type="line"/>
      <point x="282" y="1000" type="line"/>
      <point x="170" y="858" type="line"/>
    </contour>
  </outline>
</glyph>
<glyph name="lslash" format="2">
  <advance width="572"/>
  <unicode hex="0142"/>
  <anchor x="286" y="0" name="bottom"/>
  <anchor x="342" y="1440" name="caron"/>
  <anchor x="286" y="1440" name="top"/>
  <outline>
    <contour>
      <point x="56" y="494" type="line"/>
      <point x="286" y="602" type="line"/>
      <point x="286" y="592" type="line"/>
      <point x="516" y="700" type="line"/>
      <point x="516" y="798" type="line"/>
      <point x="286" y="690" type="line"/>
      <point x="286" y="700" type="line"/>
      <point x="56" y="592" type="line"/>
    </contour>
    <component base="l" xOffset="60"/>
  </outline>
</glyph>
<glyph name="eng" format="2">
  <advance width="1148"/>
  <unicode hex="014B"/>
  <outline>
    <contour>
      <point x="758" y="-450" type="curve" smooth="yes"/>
      <point x="900" y="-450"/>
      <point x="986" y="-356"/>
      <point x="986" y="-194" type="curve" smooth="yes"/>
      <point x="986" y="646" type="line" smooth="yes"/>
      <point x="986" y="808"/>
      <point x="860" y="990"/>
      <point x="608" y="990" type="curve" smooth="yes"/>
      <point x="490" y="990"/>
      <point x="368" y="940"/>
      <point x="282" y="816" type="curve"/>
      <point x="282" y="1000" type="line"/>
      <point x="170" y="860" type="line"/>
      <point x="170" y="0" type="line"/>
      <point x="282" y="0" type="line"/>
      <point x="282" y="570" type="line" smooth="yes"/>
      <point x="282" y="756"/>
      <point x="418" y="882"/>
      <point x="588" y="882" type="curve" smooth="yes"/>
      <point x="762" y="882"/>
      <point x="874" y="772"/>
      <point x="874" y="612" type="curve" smooth="yes"/>
      <point x="874" y="-174" type="line" smooth="yes"/>
      <point x="874" y="-284"/>
      <point x="842" y="-342"/>
      <point x="742" y="-342" type="curve" smooth="yes"/>
      <point x="688" y="-342"/>
      <point x="660" y="-330"/>
      <point x="628" y="-314" type="curve"/>
      <point x="590" y="-410" type="line"/>
      <point x="630" y="-430"/>
      <point x="690" y="-450"/>
    </contour>
  </outline>
</glyph>
<glyph name="Oogonek" format="2">
  <advance width="1676"/>
  <unicode hex="01EA"/>
  <anchor x="838" y="1400" name="top"/>
  <outline>
    <contour>
      <point x="890" y="-450" type="curve" smooth="yes"/>
      <point x="945" y="-450"/>
      <point x="1002" y="-435"/>
      <point x="1050" y="-410" type="curve"/>
      <point x="1050" y="-293" type="line"/>
      <point x="1013" y="-321"/>
      <point x="966" y="-340"/>
      <point x="916" y="-340" type="curve" smooth="yes"/>
      <point x="834" y="-340"/>
      <point x="808" y="-291"/>
      <point x="810" y="-229" type="curve" smooth="yes"/>
      <point x="814" y="-105"/>
      <point x="910" y="-38"/>
      <point x="1050" y="0" type="curve"/>
      <point x="1010" y="68" type="line"/>
      <point x="842" y="25"/>
      <point x="694" y="-86"/>
      <point x="690" y="-255" type="curve" smooth="yes"/>
      <point x="688" y="-362"/>
      <point x="758" y="-450"/>
    </contour>
    <contour>
      <point x="838" y="-30" type="curve" smooth="yes"/>
      <point x="1246" y="-30"/>
      <point x="1564" y="286"/>
      <point x="1564" y="700" type="curve" smooth="yes"/>
      <point x="1564" y="1108"/>
      <point x="1246" y="1430"/>
      <point x="838" y="1430" type="curve" smooth="yes"/>
      <point x="426" y="1430"/>
      <point x="112" y="1116"/>
      <point x="112" y="700" type="curve" smooth="yes"/>
      <point x="112" y="286"/>
      <point x="426" y="-30"/>
    </contour>
    <contour>
      <point x="838" y="82" type="curve" smooth="yes"/>
      <point x="502" y="82"/>
      <point x="232" y="328"/>
      <point x="232" y="700" type="curve" smooth="yes"/>
      <point x="232" y="1072"/>
      <point x="502" y="1318"/>
      <point x="838" y="1318" type="curve" smooth="yes"/>
      <point x="1174" y="1318"/>
      <point x="1444" y="1072"/>
      <point x="1444" y="700" type="curve" smooth="yes"/>
      <point x="1444" y="328"/>
      <point x="1174" y="82"/>
    </contour>
  </outline>
</glyph>
<glyph name="schwa" format="2">
  <advance width="1100"/>
  <unicode hex="0259"/>
  <outline>
    <contour>
      <point x="538" y="-30" type="curve" smooth="yes"/>
      <point x="822" y="-30"/>
      <point x="1020" y="186"/>
      <point x="1020" y="498" type="curve" smooth="yes"/>
      <point x="1020" y="796"/>
      <point x="820" y="990"/>
      <point x="518" y="990" type="curve" smooth="yes"/>
      <point x="396" y="990"/>
      <point x="281" y="955"/>
      <point x="190" y="893" type="curve"/>
      <point x="190" y="774" type="line"/>
      <point x="268" y="842"/>
      <point x="384" y="882"/>
      <point x="518" y="882" type="curve" smooth="yes"/>
      <point x="738" y="882"/>
      <point x="896" y="728"/>
      <point x="896" y="498" type="curve" smooth="yes"/>
      <point x="896" y="228"/>
      <point x="768" y="78"/>
      <point x="538" y="78" type="curve" smooth="yes"/>
      <point x="342" y="78"/>
      <point x="204" y="212"/>
      <point x="204" y="438" type="curve"/>
      <point x="158" y="398" type="line"/>
      <point x="918" y="398" type="line"/>
      <point x="922" y="502" type="line"/>
      <point x="84" y="502" type="line"/>
      <point x="48" y="182"/>
      <point x="260" y="-30"/>
    </contour>
  </outline>
</glyph>
<glyph name="commaturnedabovecomb" format="2">
  <unicode hex="0312"/>
  <anchor x="-586" y="960" name="_top"/>
  <outline>
    <contour>
      <point x="-585" y="1244" type="curve" smooth="yes"/>
      <point x="-528" y="1244"/>
      <point x="-486" y="1282"/>
      <point x="-486" y="1332" type="curve" smooth="yes"/>
      <point x="-486" y="1390"/>
      <point x="-544" y="1427"/>
      <point x="-608" y="1414" type="curve"/>
      <point x="-606" y="1475"/>
      <point x="-541" y="1535"/>
      <point x="-444" y="1534" type="curve"/>
      <point x="-444" y="1606" type="line"/>
      <point x="-628" y="1600"/>
      <point x="-696" y="1477"/>
      <point x="-696" y="1369" type="curve" smooth="yes"/>
      <point x="-696" y="1294"/>
      <point x="-651" y="1244"/>
    </contour>
  </outline>
</glyph>
<glyph name="horncomb" format="2">
  <unicode hex="031B"/>
  <anchor x="-218" y="960" name="_horn"/>
  <outline>
    <contour>
      <point x="-198" y="842" type="curve" smooth="yes"/>
      <point x="-70" y="842"/>
      <point x="-6" y="916"/>
      <point x="-6" y="1004" type="curve" smooth="yes"/>
      <point x="-6" y="1049"/>
      <point x="-24" y="1101"/>
      <point x="-63" y="1150" type="curve"/>
      <point x="-174" y="1150" type="line"/>
      <point x="-132" y="1095"/>
      <point x="-112" y="1041"/>
      <point x="-112" y="1002" type="curve" smooth="yes"/>
      <point x="-112" y="958"/>
      <point x="-142" y="926"/>
      <point x="-218" y="926" type="curve" smooth="yes"/>
      <point x="-288" y="926"/>
      <point x="-444" y="990"/>
      <point x="-604" y="990" type="curve"/>
      <point x="-604" y="922" type="line"/>
      <point x="-434" y="922"/>
      <point x="-292" y="842"/>
    </contour>
  </outline>
</glyph>
<glyph name="dieresisbelowcomb" format="2">
  <unicode hex="0324"/>
  <anchor x="-586" y="0" name="_bottom"/>
  <outline>
    <contour>
      <point x="-404" y="-390" type="curve" smooth="yes"/>
      <point x="-352" y="-390"/>
      <point x="-310" y="-348"/>
      <point x="-310" y="-296" type="curve" smooth="yes"/>
      <point x="-310" y="-244"/>
      <point x="-352" y="-202"/>
      <point x="-404" y="-202" type="curve" smooth="yes"/>
      <point x="-456" y="-202"/>
      <point x="-498" y="-244"/>
      <point x="-498" y="-296" type="curve" smooth="yes"/>
      <point x="-498" y="-348"/>
      <point x="-456" y="-390"/>
    </contour>
    <contour>
      <point x="-768" y="-390" type="curve" smooth="yes"/>
      <point x="-716" y="-390"/>
      <point x="-674" y="-348"/>
      <point x="-674" y="-296" type="curve" smooth="yes"/>
      <point x="-674" y="-244"/>
      <point x="-716" y="-202"/>
      <point x="-768" y="-202" type="curve" smooth="yes"/>
      <point x="-820" y="-202"/>
      <point x="-862" y="-244"/>
      <point x="-862" y="-296" type="curve" smooth="yes"/>
      <point x="-862" y="-348"/>
      <point x="-820" y="-390"/>
    </contour>
  </outline>
</glyph>
<glyph name="commaaccentcomb" format="2">
  <unicode hex="0326"/>
  <anchor x="-586" y="0" name="_bottom"/>
  <outline>
    <contour>
      <point x="-678" y="-660" type="line"/>
      <point x="-556" y="-582"/>
      <point x="-488" y="-492"/>
      <point x="-488" y="-396" type="curve" smooth="yes"/>
      <point x="-488" y="-328"/>
      <point x="-528" y="-284"/>
      <point x="-588" y="-284" type="curve" smooth="yes"/>
      <point x="-640" y="-284"/>
      <point x="-680" y="-322"/>
      <point x="-680" y="-370" type="curve" smooth="yes"/>
      <point x="-680" y="-428"/>
      <point x="-638" y="-468"/>
      <point x="-582" y="-464" type="curve"/>
      <point x="-588" y="-510"/>
      <point x="-660" y="-564"/>
      <point x="-730" y="-604" type="curve"/>
    </contour>
  </outline>
</glyph>
<glyph name="cedillacomb" format="2">
  <unicode hex="0327"/>
  <anchor x="-586" y="0" name="_bottom"/>
  <outline>
    <contour>
      <point x="-602" y="-450" type="curve" smooth="yes"/>
      <point x="-496" y="-450"/>
      <point x="-368" y="-402"/>
      <point x="-368" y="-266" type="curve" smooth="yes"/>
      <point x="-368" y="-160"/>
      <point x="-462" y="-102"/>
      <point x="-588" y="-94" type="curve"/>
      <point x="-548" y="40" type="line"/>
      <point x="-630" y="40" type="line"/>
      <point x="-684" y="-126" type="line"/>
      <point x="-650" y="-186" type="line"/>
      <point x="-564" y="-174"/>
      <point x="-476" y="-200"/>
      <point x="-476" y="-270" type="curve" smooth="yes"/>
      <point x="-476" y="-336"/>
      <point x="-536" y="-360"/>
      <point x="-606" y="-360" type="curve" smooth="yes"/>
      <point x="-686" y="-360"/>
      <point x="-758" y="-336"/>
      <point x="-788" y="-308" type="curve"/>
      <point x="-788" y="-406" type="line"/>
      <point x="-730" y="-434"/>
      <point x="-680" y="-450"/>
    </contour>
  </outline>
</glyph>
<glyph name="strokeshortcomb" format="2">
  <unicode hex="0335"/>
  <anchor x="-586" y="520" name="_bar"/>
  <outline>
    <contour>
      <point x="-896" y="468" type="line"/>
      <point x="-276" y="468" type="line"/>
      <point x="-276" y="572" type="line"/>
      <point x="-896" y="572" type="line"/>
    </contour>
  </outline>
</glyph>
<glyph name="Xi" format="2">
  <advance width="1222"/>
  <unicode hex="039E"/>
  <outline>
    <contour>
      <point x="140" y="0" type="line"/>
      <point x="1060" y="0" type="line"/>
      <point x="1084" y="108" type="line"/>
      <point x="140" y="108" type="line"/>
    </contour>
    <contour>
      <point x="228" y="674" type="line"/>
      <point x="972" y="674" type="line"/>
      <point x="972" y="782" type="line"/>
      <point x="252" y="782" type="line"/>
    </contour>
    <contour>
      <point x="138" y="1292" type="line"/>
      <point x="1062" y="1292" type="line"/>
      <point x="1062" y="1400" type="line"/>
      <point x="162" y="1400" type="line"/>
    </contour>
  </outline>
</glyph>
<glyph name="Sigma" format="2">
  <advance width="1116"/>
  <unicode hex="03A3"/>
  <outline>
    <contour>
      <point x="82" y="0" type="line"/>
      <point x="986" y="0" type="line"/>
      <point x="1010" y="108" type="line"/>
      <point x="222" y="108" type="line"/>
      <point x="658" y="724" type="line"/>
      <point x="238" y="1292" type="line"/>
      <point x="974" y="1292" type="line"/>
      <point x="974" y="1400" type="line"/>
      <point x="92" y="1400" type="line"/>
      <point x="92" y="1302" type="line"/>
      <point x="522" y="718" type="line"/>
      <point x="82" y="98" type="line"/>
    </contour>
  </outline>
</glyph>
<glyph name="Psi" format="2">
  <advance width="1518"/>
  <unicode hex="03A8"/>
  <outline>
    <contour>
      <point x="701" y="0" type="line"/>
      <point x="817" y="0" type="line"/>
      <point x="817" y="362" type="line"/>
      <point x="1176" y="370"/>
      <point x="1363" y="559"/>
      <point x="1363" y="965" type="curve" smooth="yes"/>
      <point x="1363" y="1095"/>
      <point x="1351" y="1237"/>
      <point x="1299" y="1400" type="curve"/>
      <point x="1176" y="1400" type="line"/>
      <point x="1234" y="1230"/>
      <point x="1249" y="1084"/>
      <point x="1249" y="965" type="curve" smooth="yes"/>
      <point x="1249" y="642"/>
      <point x="1114" y="485"/>
      <point x="817" y="470" type="curve"/>
      <point x="817" y="1400" type="line"/>
      <point x="701" y="1400" type="line"/>
      <point x="701" y="470" type="line"/>
      <point x="405" y="485"/>
      <point x="269" y="640"/>
      <point x="269" y="965" type="curve" smooth="yes"/>
      <point x="269" y="1084"/>
      <point x="284" y="1230"/>
      <point x="342" y="1400" type="curve"/>
      <point x="219" y="1400" type="line"/>
      <point x="167" y="1237"/>
      <point x="155" y="1094"/>
      <point x="155" y="965" type="curve" smooth="yes"/>
      <point x="155" y="560"/>
      <point x="341" y="370"/>
      <point x="701" y="362" type="curve"/>
    </contour>
  </outline>
</glyph>
<glyph name="beta" format="2">
  <advance width="1152"/>
  <unicode hex="03B2"/>
  <outline>
    <contour>
      <point x="170" y="-420" type="line"/>
      <point x="282" y="-420" type="line"/>
      <point x="282" y="144" type="line"/>
      <point x="352" y="39"/>
      <point x="496" y="-20"/>
      <point x="650" y="-20" type="curve" smooth="yes"/>
      <point x="892" y="-20"/>
      <point x="1072" y="158"/>
      <point x="1072" y="400" type="curve" smooth="yes"/>
      <point x="1072" y="560"/>
      <point x="990" y="722"/>
      <point x="790" y="784" type="curve"/>
      <point x="924" y="844"/>
      <point x="1002" y="960"/>
      <point x="1002" y="1100" type="curve" smooth="yes"/>
      <point x="1002" y="1310"/>
      <point x="834" y="1470"/>
      <point x="598" y="1470" type="curve" smooth="yes"/>
      <point x="344" y="1470"/>
      <point x="170" y="1298"/>
      <point x="170" y="1030" type="curve" smooth="yes"/>
    </contour>
    <contour>
      <point x="644" y="88" type="curve" smooth="yes"/>
      <point x="436" y="88"/>
      <point x="282" y="226"/>
      <point x="282" y="430" type="curve" smooth="yes"/>
      <point x="282" y="1030" type="line" smooth="yes"/>
      <point x="282" y="1238"/>
      <point x="402" y="1362"/>
      <point x="588" y="1362" type="curve" smooth="yes"/>
      <point x="764" y="1362"/>
      <point x="886" y="1254"/>
      <point x="886" y="1086" type="curve" smooth="yes"/>
      <point x="886" y="936"/>
      <point x="790" y="824"/>
      <point x="624" y="824" type="curve" smooth="yes"/>
      <point x="506" y="824" type="line"/>
      <point x="506" y="720" type="line"/>
      <point x="624" y="720" type="line" smooth="yes"/>
      <point x="814" y="720"/>
      <point x="952" y="598"/>
      <point x="952" y="404" type="curve" smooth="yes"/>
      <point x="952" y="214"/>
      <point x="826" y="88"/>
    </contour>
  </outline>
</glyph>
<glyph name="gamma" format="2">
  <advance width="1048"/>
  <unicode hex="03B3"/>
  <outline>
    <contour>
      <point x="444" y="-420" type="line"/>
      <point x="556" y="-420" type="line"/>
      <point x="556" y="12" type="line"/>
      <point x="777" y="272"/>
      <point x="887" y="576"/>
      <point x="951" y="960" type="curve"/>
      <point x="833" y="960" type="line"/>
      <point x="781" y="592"/>
      <point x="662" y="316"/>
      <point x="494" y="104" type="curve"/>
      <point x="524" y="104" type="line"/>
      <point x="172" y="960" type="line"/>
      <point x="42" y="960" type="line"/>
      <point x="444" y="-6" type="line"/>
    </contour>
  </outline>
</glyph>
<glyph name="epsilon" format="2">
  <advance width="956"/>
  <unicode hex="03B5"/>
  <anchor x="460" y="960" name="top"/>
  <outline>
    <contour>
      <point x="516" y="-30" type="curve" smooth="yes"/>
      <point x="652" y="-30"/>
      <point x="770" y="-2"/>
      <point x="876" y="56" type="curve"/>
      <point x="876" y="178" type="line"/>
      <point x="800" y="112"/>
      <point x="668" y="78"/>
      <point x="522" y="78" type="curve" smooth="yes"/>
      <point x="334" y="78"/>
      <point x="220" y="136"/>
      <point x="220" y="256" type="curve" smooth="yes"/>
      <point x="220" y="380"/>
      <point x="340" y="440"/>
      <point x="512" y="440" type="curve" smooth="yes"/>
      <point x="680" y="440" type="line"/>
      <point x="680" y="544" type="line"/>
      <point x="512" y="544" type="line" smooth="yes"/>
      <point x="356" y="544"/>
      <point x="240" y="612"/>
      <point x="240" y="722" type="curve" smooth="yes"/>
      <point x="240" y="842"/>
      <point x="378" y="880"/>
      <point x="530" y="880" type="curve" smooth="yes"/>
      <point x="656" y="880"/>
      <point x="760" y="858"/>
      <point x="842" y="808" type="curve"/>
      <point x="842" y="924" type="line"/>
      <point x="746" y="970"/>
      <point x="646" y="988"/>
      <point x="536" y="988" type="curve" smooth="yes"/>
      <point x="318" y="988"/>
      <point x="124" y="904"/>
      <point x="124" y="720" type="curve" smooth="yes"/>
      <point x="124" y="636"/>
      <point x="164" y="550"/>
      <point x="310" y="492" type="curve"/>
      <point x="148" y="436"/>
      <point x="100" y="354"/>
      <point x="100" y="250" type="curve" smooth="yes"/>
      <point x="100" y="54"/>
      <point x="270" y="-30"/>
    </contour>
  </outline>
</glyph>
<glyph name="theta" format="2">
  <advance width="1152"/>
  <unicode hex="03B8"/>
  <outline>
    <contour>
      <point x="576" y="-30" type="curve" smooth="yes"/>
      <point x="866" y="-30"/>
      <point x="1042" y="216"/>
      <point x="1042" y="720" type="curve" smooth="yes"/>
      <point x="1042" y="1226"/>
      <point x="866" y="1470"/>
      <point x="576" y="1470" type="curve" smooth="yes"/>
      <point x="286" y="1470"/>
      <point x="110" y="1226"/>
      <point x="110" y="720" type="curve" smooth="yes"/>
      <point x="110" y="216"/>
      <point x="286" y="-30"/>
    </contour>
    <contour>
      <point x="576" y="78" type="curve" smooth="yes"/>
      <point x="354" y="78"/>
      <point x="238" y="266"/>
      <point x="230" y="668" type="curve"/>
      <point x="922" y="668" type="line"/>
      <point x="914" y="266"/>
      <point x="798" y="78"/>
    </contour>
    <contour>
      <point x="230" y="772" type="line"/>
      <point x="238" y="1174"/>
      <point x="354" y="1362"/>
      <point x="576" y="1362" type="curve" smooth="yes"/>
      <point x="798" y="1362"/>
      <point x="914" y="1174"/>
      <point x="922" y="772" type="curve"/>
    </contour>
  </outline>
</glyph>
<glyph name="iota" format="2">
  <advance width="552"/>
  <unicode hex="03B9"/>
  <anchor x="218" y="960" name="top"/>
  <outline>
    <contour>
      <point x="370" y="-28" type="curve" smooth="yes"/>
      <point x="402" y="-28"/>
      <point x="464" y="-22"/>
      <point x="498" y="-12" type="curve"/>
      <point x="498" y="100" type="line"/>
      <point x="446" y="84"/>
      <point x="412" y="80"/>
      <point x="386" y="80" type="curve" smooth="yes"/>
      <point x="304" y="80"/>
      <point x="274" y="124"/>
      <point x="274" y="256" type="curve" smooth="yes"/>
      <point x="274" y="1000" type="line"/>
      <point x="162" y="860" type="line"/>
      <point x="162" y="176" type="line" smooth="yes"/>
      <point x="162" y="36"/>
      <point x="258" y="-28"/>
    </contour>
  </outline>
</glyph>
<glyph name="lambda" format="2">
  <advance width="1054"/>
  <unicode hex="03BB"/>
  <outline>
    <contour>
      <point x="52" y="0" type="line"/>
      <point x="174" y="0" type="line"/>
      <point x="552" y="846" type="line"/>
      <point x="876" y="0" type="line"/>
      <point x="1002" y="0" type="line"/>
      <point x="508" y="1292" type="line" smooth="yes"/>
      <point x="462" y="1412"/>
      <point x="388" y="1470"/>
      <point x="270" y="1470" type="curve" smooth="yes"/>
      <point x="238" y="1470"/>
      <point x="198" y="1466"/>
      <point x="142" y="1450" type="curve"/>
      <point x="142" y="1346" type="line"/>
      <point x="186" y="1358"/>
      <point x="228" y="1362"/>
      <point x="250" y="1362" type="curve" smooth="yes"/>
      <point x="338" y="1362"/>
      <point x="386" y="1300"/>
      <point x="416" y="1214" type="curve" smooth="yes"/>
      <point x="496" y="984" type="line"/>
    </contour>
  </outline>
</glyph>
<glyph name="xi" format="2">
  <advance width="886"/>
  <unicode hex="03BE"/>
  <outline>
    <contour>
      <point x="748" y="-420" type="line"/>
      <point x="798" y="-318"/>
      <point x="824" y="-232"/>
      <point x="824" y="-156" type="curve" smooth="yes"/>
      <point x="824" y="-24"/>
      <point x="744" y="50"/>
      <point x="530" y="120" type="curve" smooth="yes"/>
      <point x="332" y="186"/>
      <point x="204" y="262"/>
      <point x="204" y="440" type="curve" smooth="yes"/>
      <point x="204" y="708"/>
      <point x="440" y="766"/>
      <point x="606" y="766" type="curve" smooth="yes"/>
      <point x="742" y="766" type="line"/>
      <point x="742" y="870" type="line"/>
      <point x="606" y="870" type="line" smooth="yes"/>
      <point x="444" y="870"/>
      <point x="262" y="956"/>
      <point x="262" y="1144" type="curve" smooth="yes"/>
      <point x="262" y="1300"/>
      <point x="386" y="1364"/>
      <point x="562" y="1364" type="curve" smooth="yes"/>
      <point x="670" y="1364"/>
      <point x="766" y="1340"/>
      <point x="844" y="1294" type="curve"/>
      <point x="844" y="1412" type="line"/>
      <point x="752" y="1452"/>
      <point x="658" y="1470"/>
      <point x="566" y="1470" type="curve" smooth="yes"/>
      <point x="316" y="1470"/>
      <point x="146" y="1332"/>
      <point x="146" y="1132" type="curve" smooth="yes"/>
      <point x="146" y="996"/>
      <point x="224" y="880"/>
      <point x="366" y="822" type="curve"/>
      <point x="178" y="746"/>
      <point x="80" y="624"/>
      <point x="80" y="436" type="curve" smooth="yes"/>
      <point x="80" y="204"/>
      <point x="246" y="94"/>
      <point x="510" y="8" type="curve" smooth="yes"/>
      <point x="640" y="-34"/>
      <point x="712" y="-84"/>
      <point x="712" y="-180" type="curve" smooth="yes"/>
      <point x="712" y="-240"/>
      <point x="686" y="-298"/>
      <point x="630" y="-420" type="curve"/>
    </contour>
  </outline>
</glyph>
<glyph name="pi" format="2">
  <advance width="1260"/>
  <unicode hex="03C0"/>
  <outline>
    <contour>
      <point x="998" y="-28" type="curve" smooth="yes"/>
      <point x="1050" y="-28"/>
      <point x="1106" y="-14"/>
      <point x="1152" y="6" type="curve"/>
      <point x="1122" y="106" type="line"/>
      <point x="1088" y="90"/>
      <point x="1048" y="80"/>
      <point x="1010" y="80" type="curve" smooth="yes"/>
      <point x="930" y="80"/>
      <point x="910" y="124"/>
      <point x="910" y="256" type="curve" smooth="yes"/>
      <point x="910" y="852" type="line"/>
      <point x="1136" y="852" type="line"/>
      <point x="1136" y="960" type="line"/>
      <point x="104" y="960" type="line"/>
      <point x="80" y="852" type="line"/>
      <point x="286" y="852" type="line"/>
      <point x="256" y="0" type="line"/>
      <point x="368" y="0" type="line"/>
      <point x="398" y="852" type="line"/>
      <point x="798" y="852" type="line"/>
      <point x="798" y="180" type="line" smooth="yes"/>
      <point x="798" y="36"/>
      <point x="884" y="-28"/>
    </contour>
  </outline>
</glyph>
<glyph name="rho" format="2">
  <advance width="1246"/>
  <unicode hex="03C1"/>
  <outline>
    <contour>
      <point x="162" y="-420" type="line"/>
      <point x="274" y="-420" type="line"/>
      <point x="274" y="170" type="line"/>
      <point x="350" y="50"/>
      <point x="504" y="-30"/>
      <point x="672" y="-30" type="curve" smooth="yes"/>
      <point x="962" y="-30"/>
      <point x="1166" y="202"/>
      <point x="1166" y="480" type="curve" smooth="yes"/>
      <point x="1166" y="762"/>
      <point x="968" y="990"/>
      <point x="660" y="990" type="curve" smooth="yes"/>
      <point x="370" y="990"/>
      <point x="162" y="758"/>
      <point x="162" y="480" type="curve" smooth="yes"/>
    </contour>
    <contour>
      <point x="660" y="78" type="curve" smooth="yes"/>
      <point x="434" y="78"/>
      <point x="274" y="234"/>
      <point x="274" y="480" type="curve" smooth="yes"/>
      <point x="274" y="726"/>
      <point x="434" y="882"/>
      <point x="660" y="882" type="curve" smooth="yes"/>
      <point x="886" y="882"/>
      <point x="1046" y="726"/>
      <point x="1046" y="480" type="curve" smooth="yes"/>
      <point x="1046" y="234"/>
      <point x="886" y="78"/>
    </contour>
  </outline>
</glyph>
<glyph name="sigmafinal" format="2">
  <advance width="954"/>
  <unicode hex="03C2"/>
  <outline>
    <contour>
      <point x="770" y="-420" type="line"/>
      <point x="822" y="-316"/>
      <point x="850" y="-234"/>
      <point x="850" y="-156" type="curve" smooth="yes"/>
      <point x="850" y="-24"/>
      <point x="772" y="50"/>
      <point x="562" y="120" type="curve" smooth="yes"/>
      <point x="322" y="200"/>
      <point x="200" y="288"/>
      <point x="200" y="498" type="curve" smooth="yes"/>
      <point x="200" y="754"/>
      <point x="366" y="882"/>
      <point x="584" y="882" type="curve" smooth="yes"/>
      <point x="692" y="882"/>
      <point x="786" y="854"/>
      <point x="850" y="800" type="curve"/>
      <point x="850" y="926" type="line"/>
      <point x="774" y="970"/>
      <point x="688" y="990"/>
      <point x="590" y="990" type="curve" smooth="yes"/>
      <point x="306" y="990"/>
      <point x="80" y="820"/>
      <point x="80" y="502" type="curve" smooth="yes"/>
      <point x="80" y="234"/>
      <point x="238" y="110"/>
      <point x="526" y="12" type="curve" smooth="yes"/>
      <point x="668" y="-36"/>
      <point x="738" y="-84"/>
      <point x="738" y="-178" type="curve" smooth="yes"/>
      <point x="738" y="-240"/>
      <point x="710" y="-304"/>
      <point x="652" y="-420" type="curve"/>
    </contour>
  </outline>
</glyph>
<glyph name="upsilon" format="2">
  <advance width="1099"/>
  <unicode hex="03C5"/>
  <anchor x="510" y="960" name="top"/>
  <outline>
    <contour>
      <point x="524" y="-30" type="curve" smooth="yes"/>
      <point x="804" y="-30"/>
      <point x="952" y="186"/>
      <point x="952" y="456" type="curve" smooth="yes"/>
      <point x="952" y="644"/>
      <point x="903" y="818"/>
      <point x="811" y="960" type="curve"/>
      <point x="679" y="960" type="line"/>
      <point x="779" y="824"/>
      <point x="832" y="653"/>
      <point x="832" y="456" type="curve" smooth="yes"/>
      <point x="832" y="238"/>
      <point x="735" y="82"/>
      <point x="522" y="80" type="curve" smooth="yes"/>
      <point x="370" y="80"/>
      <point x="274" y="166"/>
      <point x="274" y="348" type="curve" smooth="yes"/>
      <point x="274" y="1000" type="line"/>
      <point x="162" y="860" type="line"/>
      <point x="162" y="314" type="line" smooth="yes"/>
      <point x="162" y="128"/>
      <point x="284" y="-30"/>
    </contour>
  </outline>
</glyph>
<glyph name="chi" format="2">
  <advance width="1062"/>
  <unicode hex="03C7"/>
  <outline>
    <contour>
      <point x="72" y="-420" type="line"/>
      <point x="206" y="-420" type="line"/>
      <point x="572" y="260" type="line"/>
      <point x="536" y="262" type="line"/>
      <point x="866" y="-420" type="line"/>
      <point x="1000" y="-420" type="line"/>
      <point x="614" y="364" type="line"/>
      <point x="602" y="276" type="line"/>
      <point x="970" y="960" type="line"/>
      <point x="838" y="960" type="line"/>
      <point x="542" y="398" type="line"/>
      <point x="576" y="398" type="line"/>
      <point x="374" y="822" type="line" smooth="yes"/>
      <point x="302" y="972"/>
      <point x="216" y="1012"/>
      <point x="54" y="974" type="curve"/>
      <point x="54" y="872" type="line"/>
      <point x="182" y="906"/>
      <point x="232" y="854"/>
      <point x="284" y="744" type="curve" smooth="yes"/>
      <point x="498" y="290" type="line"/>
      <point x="512" y="380" type="line"/>
    </contour>
  </outline>
</glyph>
<glyph name="psi" format="2">
  <advance width="1397"/>
  <unicode hex="03C8"/>
  <outline>
    <contour>
      <point x="634" y="-420" type="line"/>
      <point x="746" y="-420" type="line"/>
      <point x="746" y="0" type="line"/>
      <point x="1076" y="0"/>
      <point x="1250" y="203"/>
      <point x="1250" y="456" type="curve" smooth="yes"/>
      <point x="1250" y="644"/>
      <point x="1201" y="818"/>
      <point x="1109" y="960" type="curve"/>
      <point x="977" y="960" type="line"/>
      <point x="1077" y="824"/>
      <point x="1130" y="653"/>
      <point x="1130" y="456" type="curve" smooth="yes"/>
      <point x="1130" y="254"/>
      <point x="1010" y="110"/>
      <point x="746" y="108" type="curve"/>
      <point x="746" y="1280" type="line"/>
      <point x="634" y="1280" type="line"/>
      <point x="634" y="108" type="line"/>
      <point x="352" y="120"/>
      <point x="274" y="280"/>
      <point x="274" y="588" type="curve" smooth="yes"/>
      <point x="274" y="1000" type="line"/>
      <point x="162" y="860" type="line"/>
      <point x="162" y="554" type="line" smooth="yes"/>
      <point x="162" y="242"/>
      <point x="256" y="14"/>
      <point x="634" y="0" type="curve"/>
    </contour>
  </outline>
</glyph>
<glyph name="omega" format="2">
  <advance width="1526"/>
  <unicode hex="03C9"/>
  <anchor x="763" y="0" name="bottom"/>
  <anchor x="763" y="960" name="top"/>
  <outline>
    <contour>
      <point x="469" y="-20" type="curve" smooth="yes"/>
      <point x="593" y="-20"/>
      <point x="713" y="56"/>
      <point x="763" y="192" type="curve"/>
      <point x="813" y="56"/>
      <point x="933" y="-20"/>
      <point x="1057" y="-20" type="curve" smooth="yes"/>
      <point x="1289" y="-20"/>
      <point x="1411" y="192"/>
      <point x="1411" y="456" type="curve" smooth="yes"/>
      <point x="1411" y="644"/>
      <point x="1362" y="818"/>
      <point x="1270" y="960" type="curve"/>
      <point x="1138" y="960" type="line"/>
      <point x="1238" y="824"/>
      <point x="1291" y="653"/>
      <point x="1291" y="456" type="curve" smooth="yes"/>
      <point x="1291" y="244"/>
      <point x="1215" y="92"/>
      <point x="1047" y="90" type="curve" smooth="yes"/>
      <point x="882" y="88"/>
      <point x="823" y="222"/>
      <point x="823" y="428" type="curve" smooth="yes"/>
      <point x="823" y="694" type="line"/>
      <point x="703" y="694" type="line"/>
      <point x="703" y="428" type="line" smooth="yes"/>
      <point x="703" y="222"/>
      <point x="645" y="88"/>
      <point x="479" y="90" type="curve" smooth="yes"/>
      <point x="311" y="92"/>
      <point x="235" y="246"/>
      <point x="235" y="456" type="curve" smooth="yes"/>
      <point x="235" y="653"/>
      <point x="288" y="824"/>
      <point x="388" y="960" type="curve"/>
      <point x="256" y="960" type="line"/>
      <point x="164" y="818"/>
      <point x="115" y="644"/>
      <point x="115" y="456" type="curve" smooth="yes"/>
      <point x="115" y="192"/>
      <point x="237" y="-20"/>
    </contour>
  </outline>
</glyph>
<glyph name="Nje-cy" format="2">
  <advance width="2110"/>
  <unicode hex="040A"/>
  <outline>
    <contour>
      <point x="1080" y="0" type="line"/>
      <point x="1530" y="0" type="line" smooth="yes"/>
      <point x="1838" y="0"/>
      <point x="2010" y="138"/>
      <point x="2010" y="396" type="curve" smooth="yes"/>
      <point x="2010" y="646"/>
      <point x="1816" y="796"/>
      <point x="1532" y="796" type="curve" smooth="yes"/>
      <point x="290" y="796" type="line"/>
      <point x="290" y="688" type="line"/>
      <point x="1546" y="688" type="line" smooth="yes"/>
      <point x="1762" y="688"/>
      <point x="1894" y="572"/>
      <point x="1894" y="392" type="curve" smooth="yes"/>
      <point x="1894" y="206"/>
      <point x="1766" y="108"/>
      <point x="1544" y="108" type="curve" smooth="yes"/>
      <point x="1196" y="108" type="line"/>
      <point x="1198" y="1400" type="line"/>
      <point x="1082" y="1400" type="line"/>
    </contour>
    <contour>
      <point x="200" y="0" type="line"/>
      <point x="316" y="0" type="line"/>
      <point x="316" y="1400" type="line"/>
      <point x="200" y="1400" type="line"/>
    </contour>
  </outline>
</glyph>
<glyph name="Be-cy" format="2">
  <advance width="1220"/>
  <unicode hex="0411"/>
  <outline>
    <contour>
      <point x="200" y="0" type="line"/>
      <point x="610" y="0" type="line" smooth="yes"/>
      <point x="918" y="0"/>
      <point x="1090" y="140"/>
      <point x="1090" y="398" type="curve" smooth="yes"/>
      <point x="1090" y="656"/>
      <point x="896" y="796"/>
      <point x="612" y="796" type="curve" smooth="yes"/>
      <point x="316" y="796" type="line"/>
      <point x="316" y="1292" type="line"/>
      <point x="1008" y="1292" type="line"/>
      <point x="1008" y="1400" type="line"/>
      <point x="200" y="1400" type="line"/>
    </contour>
    <contour>
      <point x="316" y="108" type="line"/>
      <point x="316" y="688" type="line"/>
      <point x="626" y="688" type="line" smooth="yes"/>
      <point x="842" y="688"/>
      <point x="974" y="574"/>
      <point x="974" y="394" type="curve" smooth="yes"/>
      <point x="974" y="208"/>
      <point x="846" y="108"/>
      <point x="624" y="108" type="curve" smooth="yes"/>
    </contour>
  </outline>
</glyph>
<glyph name="Ze-cy" format="2">
  <advance width="1148"/>
  <unicode hex="0417"/>
  <guideline x="119" y="362" angle="90"/>
  <guideline x="119" y="362" angle="77.9052"/>
  <anchor x="528" y="0" name="bottom"/>
  <anchor x="516" y="1400" name="top"/>
  <outline>
    <contour>
      <point x="508" y="-30" type="curve" smooth="yes"/>
      <point x="812" y="-30"/>
      <point x="1016" y="158"/>
      <point x="1018" y="366" type="curve" smooth="yes"/>
      <point x="1020" y="564"/>
      <point x="892" y="692"/>
      <point x="736" y="736" type="curve"/>
      <point x="846" y="772"/>
      <point x="974" y="916"/>
      <point x="974" y="1058" type="curve" smooth="yes"/>
      <point x="974" y="1290"/>
      <point x="800" y="1430"/>
      <point x="522" y="1430" type="curve" smooth="yes"/>
      <point x="372" y="1430"/>
      <point x="238" y="1390"/>
      <point x="134" y="1314" type="curve"/>
      <point x="134" y="1190" type="line"/>
      <point x="236" y="1274"/>
      <point x="366" y="1318"/>
      <point x="516" y="1318" type="curve" smooth="yes"/>
      <point x="726" y="1318"/>
      <point x="858" y="1224"/>
      <point x="858" y="1056" type="curve" smooth="yes"/>
      <point x="858" y="882"/>
      <point x="724" y="778"/>
      <point x="522" y="778" type="curve" smooth="yes"/>
      <point x="280" y="778" type="line"/>
      <point x="256" y="670" type="line"/>
      <point x="532" y="670" type="line" smooth="yes"/>
      <point x="786" y="670"/>
      <point x="902" y="568"/>
      <point x="902" y="376" type="curve" smooth="yes"/>
      <point x="900" y="200"/>
      <point x="750" y="82"/>
      <point x="508" y="82" type="curve" smooth="yes"/>
      <point x="340" y="82"/>
      <point x="186" y="136"/>
      <point x="88" y="226" type="curve"/>
      <point x="88" y="88" type="line"/>
      <point x="198" y="12"/>
      <point x="344" y="-30"/>
    </contour>
  </outline>
</glyph>
<glyph name="U-cy" format="2">
  <advance width="1196"/>
  <unicode hex="0423"/>
  <anchor x="648" y="1400" name="top"/>
  <outline>
    <contour>
      <point x="104" y="0" type="line"/>
      <point x="336" y="-18"/>
      <point x="514" y="130"/>
      <point x="688" y="470" type="curve" smooth="yes"/>
      <point x="1166" y="1400" type="line"/>
      <point x="1032" y="1400" type="line"/>
      <point x="606" y="546" type="line" smooth="yes"/>
      <point x="440" y="214"/>
      <point x="300" y="102"/>
      <point x="104" y="108" type="curve"/>
    </contour>
    <contour>
      <point x="604" y="492" type="line"/>
      <point x="680" y="608" type="line"/>
      <point x="222" y="1400" type="line"/>
      <point x="78" y="1400" type="line"/>
    </contour>
  </outline>
</glyph>
<glyph name="Hardsign-cy" format="2">
  <advance width="1514"/>
  <unicode hex="042A"/>
  <guideline x="271" y="700" angle="0"/>
  <anchor x="542" y="1400" name="top"/>
  <outline>
    <contour>
      <point x="484" y="1292" type="line"/>
      <point x="600" y="1400" type="line"/>
      <point x="82" y="1400" type="line"/>
      <point x="58" y="1292" type="line"/>
    </contour>
    <contour>
      <point x="484" y="0" type="line"/>
      <point x="934" y="0" type="line" smooth="yes"/>
      <point x="1242" y="0"/>
      <point x="1414" y="138"/>
      <point x="1414" y="396" type="curve" smooth="yes"/>
      <point x="1414" y="646"/>
      <point x="1220" y="796"/>
      <point x="936" y="796" type="curve" smooth="yes"/>
      <point x="600" y="796" type="line"/>
      <point x="600" y="1400" type="line"/>
      <point x="484" y="1400" type="line"/>
    </contour>
    <contour>
      <point x="600" y="108" type="line"/>
      <point x="600" y="688" type="line"/>
      <point x="950" y="688" type="line" smooth="yes"/>
      <point x="1166" y="688"/>
      <point x="1298" y="572"/>
      <point x="1298" y="392" type="curve" smooth="yes"/>
      <point x="1298" y="206"/>
      <point x="1170" y="108"/>
      <point x="948" y="108" type="curve" smooth="yes"/>
    </contour>
  </outline>
</glyph>
<glyph name="Yeru-cy" format="2">
  <advance width="1646"/>
  <unicode hex="042B"/>
  <anchor x="824" y="0" name="bottom"/>
  <anchor x="824" y="1400" name="top"/>
  <outline>
    <contour>
      <point x="200" y="0" type="line"/>
      <point x="640" y="0" type="line" smooth="yes"/>
      <point x="948" y="0"/>
      <point x="1120" y="138"/>
      <point x="1120" y="396" type="curve" smooth="yes"/>
      <point x="1120" y="646"/>
      <point x="926" y="796"/>
      <point x="642" y="796" type="curve" smooth="yes"/>
      <point x="316" y="796" type="line"/>
      <point x="316" y="1400" type="line"/>
      <point x="200" y="1400" type="line"/>
    </contour>
    <contour>
      <point x="316" y="108" type="line"/>
      <point x="316" y="688" type="line"/>
      <point x="656" y="688" type="line" smooth="yes"/>
      <point x="872" y="688"/>
      <point x="1004" y="572"/>
      <point x="1004" y="392" type="curve" smooth="yes"/>
      <point x="1004" y="206"/>
      <point x="876" y="108"/>
      <point x="654" y="108" type="curve" smooth="yes"/>
    </contour>
    <contour>
      <point x="1330" y="0" type="line"/>
      <point x="1446" y="0" type="line"/>
      <point x="1446" y="1400" type="line"/>
      <point x="1330" y="1400" type="line"/>
    </contour>
  </outline>
</glyph>
<glyph name="Ereversed-cy" format="2">
  <advance width="1391"/>
  <unicode hex="042D"/>
  <anchor x="605" y="0" name="bottom"/>
  <anchor x="605" y="1400" name="top"/>
  <outline>
    <contour>
      <point x="573" y="-30" type="curve" smooth="yes"/>
      <point x="1001" y="-30"/>
      <point x="1279" y="258"/>
      <point x="1279" y="718" type="curve" smooth="yes"/>
      <point x="1279" y="1144"/>
      <point x="995" y="1430"/>
      <point x="597" y="1430" type="curve" smooth="yes"/>
      <point x="419" y="1430"/>
      <point x="269" y="1386"/>
      <point x="161" y="1312" type="curve"/>
      <point x="161" y="1190" type="line"/>
      <point x="273" y="1278"/>
      <point x="417" y="1320"/>
      <point x="585" y="1320" type="curve" smooth="yes"/>
      <point x="933" y="1320"/>
      <point x="1159" y="1102"/>
      <point x="1159" y="716" type="curve" smooth="yes"/>
      <point x="1159" y="300"/>
      <point x="927" y="82"/>
      <point x="573" y="82" type="curve" smooth="yes"/>
      <point x="393" y="82"/>
      <point x="235" y="124"/>
      <point x="99" y="230" type="curve"/>
      <point x="99" y="110" type="line"/>
      <point x="235" y="12"/>
      <point x="393" y="-30"/>
    </contour>
    <contour>
      <point x="295" y="688" type="line"/>
      <point x="1181" y="688" type="line"/>
      <point x="1181" y="796" type="line"/>
      <point x="319" y="796" type="line"/>
    </contour>
  </outline>
</glyph>
<glyph name="Ia-cy" format="2">
  <advance width="1284"/>
  <unicode hex="042F"/>
  <anchor x="666" y="1400" name="top"/>
  <outline>
    <contour>
      <point x="100" y="0" type="line"/>
      <point x="244" y="0" type="line"/>
      <point x="716" y="614" type="line"/>
      <point x="968" y="614" type="line"/>
      <point x="968" y="0" type="line"/>
      <point x="1084" y="0" type="line"/>
      <point x="1084" y="1400" type="line"/>
      <point x="614" y="1400" type="line" smooth="yes"/>
      <point x="334" y="1400"/>
      <point x="160" y="1232"/>
      <point x="160" y="1018" type="curve" smooth="yes"/>
      <point x="160" y="774"/>
      <point x="312" y="632"/>
      <point x="578" y="616" type="curve"/>
    </contour>
    <contour>
      <point x="604" y="722" type="line" smooth="yes"/>
      <point x="380" y="722"/>
      <point x="276" y="840"/>
      <point x="276" y="1016" type="curve" smooth="yes"/>
      <point x="276" y="1186"/>
      <point x="406" y="1292"/>
      <point x="628" y="1292" type="curve" smooth="yes"/>
      <point x="968" y="1292" type="line"/>
      <point x="968" y="722" type="line"/>
    </contour>
  </outline>
</glyph>
<glyph name="be-cy" format="2">
  <advance width="1174"/>
  <unicode hex="0431"/>
  <outline>
    <contour>
      <point x="604" y="-30" type="curve" smooth="yes"/>
      <point x="896" y="-30"/>
      <point x="1094" y="202"/>
      <point x="1094" y="480" type="curve" smooth="yes"/>
      <point x="1094" y="758"/>
      <point x="900" y="990"/>
      <point x="618" y="990" type="curve" smooth="yes"/>
      <point x="420" y="990"/>
      <point x="282" y="892"/>
      <point x="198" y="744" type="curve"/>
      <point x="220" y="1014"/>
      <point x="290" y="1196"/>
      <point x="562" y="1258" type="curve" smooth="yes"/>
      <point x="984" y="1354" type="line"/>
      <point x="984" y="1470" type="line"/>
      <point x="524" y="1366" type="line" smooth="yes"/>
      <point x="192" y="1290"/>
      <point x="90" y="1028"/>
      <point x="90" y="590" type="curve" smooth="yes"/>
      <point x="90" y="190"/>
      <point x="280" y="-30"/>
    </contour>
    <contour>
      <point x="598" y="78" type="curve" smooth="yes"/>
      <point x="378" y="78"/>
      <point x="222" y="234"/>
      <point x="222" y="480" type="curve" smooth="yes"/>
      <point x="222" y="726"/>
      <point x="378" y="882"/>
      <point x="598" y="882" type="curve" smooth="yes"/>
      <point x="818" y="882"/>
      <point x="974" y="726"/>
      <point x="974" y="480" type="curve" smooth="yes"/>
      <point x="974" y="234"/>
      <point x="818" y="78"/>
    </contour>
  </outline>
</glyph>
<glyph name="de-cy" format="2">
  <advance width="1264"/>
  <unicode hex="0434"/>
  <outline>
    <contour>
      <point x="902" y="0" type="line"/>
      <point x="1014" y="0" type="line"/>
      <point x="1014" y="960" type="line"/>
      <point x="274" y="960" type="line"/>
      <point x="274" y="272" type="line" smooth="yes"/>
      <point x="274" y="122"/>
      <point x="184" y="84"/>
      <point x="62" y="96" type="curve"/>
      <point x="62" y="20" type="line"/>
      <point x="236" y="4"/>
      <point x="386" y="56"/>
      <point x="386" y="240" type="curve" smooth="yes"/>
      <point x="386" y="856" type="line"/>
      <point x="902" y="856" type="line"/>
    </contour>
    <contour>
      <point x="62" y="-364" type="line"/>
      <point x="166" y="-236" type="line"/>
      <point x="166" y="0" type="line"/>
      <point x="1106" y="0" type="line"/>
      <point x="1106" y="-364" type="line"/>
      <point x="1210" y="-236" type="line"/>
      <point x="1210" y="104" type="line"/>
      <point x="280" y="104" type="line"/>
      <point x="280" y="60" type="line"/>
      <point x="62" y="96" type="line"/>
    </contour>
  </outline>
</glyph>
<glyph name="ze-cy" format="2">
  <advance width="990"/>
  <unicode hex="0437"/>
  <anchor x="484" y="0" name="bottom"/>
  <anchor x="474" y="960" name="top"/>
  <outline>
    <contour>
      <point x="474" y="-20" type="curve" smooth="yes"/>
      <point x="726" y="-20"/>
      <point x="900" y="84"/>
      <point x="900" y="278" type="curve" smooth="yes"/>
      <point x="900" y="402"/>
      <point x="814" y="492"/>
      <point x="656" y="522" type="curve"/>
      <point x="790" y="556"/>
      <point x="864" y="628"/>
      <point x="864" y="738" type="curve" smooth="yes"/>
      <point x="864" y="900"/>
      <point x="714" y="992"/>
      <point x="486" y="992" type="curve" smooth="yes"/>
      <point x="360" y="992"/>
      <point x="234" y="954"/>
      <point x="148" y="894" type="curve"/>
      <point x="148" y="784" type="line"/>
      <point x="236" y="854"/>
      <point x="354" y="888"/>
      <point x="480" y="888" type="curve" smooth="yes"/>
      <point x="642" y="888"/>
      <point x="752" y="832"/>
      <point x="752" y="728" type="curve" smooth="yes"/>
      <point x="752" y="606"/>
      <point x="624" y="562"/>
      <point x="424" y="562" type="curve" smooth="yes"/>
      <point x="260" y="562" type="line"/>
      <point x="236" y="458" type="line"/>
      <point x="426" y="458" type="line" smooth="yes"/>
      <point x="658" y="458"/>
      <point x="788" y="402"/>
      <point x="788" y="280" type="curve" smooth="yes"/>
      <point x="788" y="138"/>
      <point x="664" y="84"/>
      <point x="472" y="84" type="curve" smooth="yes"/>
      <point x="346" y="84"/>
      <point x="218" y="110"/>
      <point x="120" y="182" type="curve"/>
      <point x="120" y="58" type="line"/>
      <point x="218" y="2"/>
      <point x="338" y="-20"/>
    </contour>
  </outline>
</glyph>
<glyph name="ii-cy" format="2">
  <advance width="1178"/>
  <unicode hex="0438"/>
  <anchor x="588" y="0" name="bottom"/>
  <anchor x="588" y="960" name="top"/>
  <outline>
    <contour>
      <point x="170" y="0" type="line"/>
      <point x="254" y="0" type="line"/>
      <point x="896" y="784" type="line"/>
      <point x="896" y="0" type="line"/>
      <point x="1008" y="0" type="line"/>
      <point x="1008" y="960" type="line"/>
      <point x="918" y="960" type="line"/>
      <point x="282" y="184" type="line"/>
      <point x="282" y="1000" type="line"/>
      <point x="170" y="858" type="line"/>
    </contour>
  </outline>
</glyph>
<glyph name="el-cy" format="2">
  <advance width="1184"/>
  <unicode hex="043B"/>
  <outline>
    <contour>
      <point x="82" y="-20" type="line"/>
      <point x="260" y="-40"/>
      <point x="406" y="22"/>
      <point x="406" y="240" type="curve" smooth="yes"/>
      <point x="406" y="856" type="line"/>
      <point x="902" y="856" type="line"/>
      <point x="902" y="0" type="line"/>
      <point x="1014" y="0" type="line"/>
      <point x="1014" y="960" type="line"/>
      <point x="294" y="960" type="line"/>
      <point x="294" y="260" type="line" smooth="yes"/>
      <point x="294" y="110"/>
      <point x="208" y="72"/>
      <point x="82" y="84" type="curve"/>
    </contour>
  </outline>
</glyph>
<glyph name="pe-cy" format="2">
  <advance width="1164"/>
  <unicode hex="043F"/>
  <anchor x="582" y="960" name="top"/>
  <outline>
    <contour>
      <point x="170" y="0" type="line"/>
      <point x="282" y="0" type="line"/>
      <point x="282" y="856" type="line"/>
      <point x="882" y="856" type="line"/>
      <point x="882" y="0" type="line"/>
      <point x="994" y="0" type="line"/>
      <point x="994" y="960" type="line"/>
      <point x="170" y="960" type="line"/>
    </contour>
  </outline>
</glyph>
<glyph name="che-cy" format="2">
  <advance width="1056"/>
  <unicode hex="0447"/>
  <anchor x="494" y="448" name="center"/>
  <anchor x="886" y="0" name="descender"/>
  <anchor x="774" y="0" name="descender_alt"/>
  <anchor x="492" y="960" name="top"/>
  <outline>
    <contour>
      <point x="774" y="0" type="line"/>
      <point x="886" y="0" type="line"/>
      <point x="886" y="1000" type="line"/>
      <point x="774" y="858" type="line"/>
      <point x="774" y="518" type="line"/>
      <point x="692" y="500"/>
      <point x="608" y="488"/>
      <point x="492" y="488" type="curve" smooth="yes"/>
      <point x="288" y="488"/>
      <point x="212" y="574"/>
      <point x="212" y="740" type="curve" smooth="yes"/>
      <point x="212" y="1000" type="line"/>
      <point x="100" y="858" type="line"/>
      <point x="100" y="722" type="line" smooth="yes"/>
      <point x="100" y="504"/>
      <point x="210" y="380"/>
      <point x="486" y="380" type="curve" smooth="yes"/>
      <point x="590" y="380"/>
      <point x="674" y="392"/>
      <point x="774" y="418" type="curve"/>
    </contour>
  </outline>
</glyph>
<glyph name="sha-cy" format="2">
  <advance width="1708"/>
  <unicode hex="0448"/>
  <anchor x="1538" y="0" name="descender"/>
  <outline>
    <contour>
      <point x="170" y="0" type="line"/>
      <point x="1538" y="0" type="line"/>
      <point x="1538" y="1000" type="line"/>
      <point x="1426" y="858" type="line"/>
      <point x="1426" y="104" type="line"/>
      <point x="910" y="104" type="line"/>
      <point x="910" y="1000" type="line"/>
      <point x="798" y="858" type="line"/>
      <point x="798" y="104" type="line"/>
      <point x="282" y="104" type="line"/>
      <point x="282" y="1000" type="line"/>
      <point x="170" y="858" type="line"/>
    </contour>
  </outline>
</glyph>
<glyph name="ereversed-cy" format="2">
  <advance width="982"/>
  <unicode hex="044D"/>
  <anchor x="422" y="0" name="bottom"/>
  <anchor x="422" y="960" name="top"/>
  <outline>
    <contour>
      <point x="402" y="-30" type="curve" smooth="yes"/>
      <point x="700" y="-30"/>
      <point x="902" y="172"/>
      <point x="902" y="492" type="curve" smooth="yes"/>
      <point x="902" y="790"/>
      <point x="704" y="990"/>
      <point x="418" y="990" type="curve" smooth="yes"/>
      <point x="313" y="990"/>
      <point x="197" y="958"/>
      <point x="116" y="902" type="curve"/>
      <point x="116" y="784" type="line"/>
      <point x="191" y="842"/>
      <point x="300" y="882"/>
      <point x="410" y="882" type="curve" smooth="yes"/>
      <point x="640" y="882"/>
      <point x="784" y="740"/>
      <point x="784" y="490" type="curve" smooth="yes"/>
      <point x="784" y="222"/>
      <point x="630" y="78"/>
      <point x="400" y="78" type="curve" smooth="yes"/>
      <point x="287" y="78"/>
      <point x="169" y="114"/>
      <point x="90" y="182" type="curve"/>
      <point x="90" y="56" type="line"/>
      <point x="176" y="-6"/>
      <point x="293" y="-30"/>
    </contour>
    <contour>
      <point x="182" y="440" type="line"/>
      <point x="814" y="440" type="line"/>
      <point x="814" y="544" type="line"/>
      <point x="206" y="544" type="line"/>
    </contour>
  </outline>
</glyph>
<glyph name="iu-cy" format="2">
  <advance width="1634"/>
  <unicode hex="044E"/>
  <anchor x="872" y="960" name="top"/>
  <outline>
    <contour>
      <point x="170" y="0" type="line"/>
      <point x="282" y="0" type="line"/>
      <point x="280" y="460" type="line"/>
      <point x="624" y="460" type="line"/>
      <point x="624" y="564" type="line"/>
      <point x="280" y="564" type="line"/>
      <point x="282" y="1000" type="line"/>
      <point x="170" y="858" type="line"/>
    </contour>
    <contour>
      <point x="1048" y="-30" type="curve" smooth="yes"/>
      <point x="1338" y="-30"/>
      <point x="1554" y="202"/>
      <point x="1554" y="480" type="curve" smooth="yes"/>
      <point x="1554" y="758"/>
      <point x="1338" y="990"/>
      <point x="1048" y="990" type="curve" smooth="yes"/>
      <point x="758" y="990"/>
      <point x="542" y="758"/>
      <point x="542" y="480" type="curve" smooth="yes"/>
      <point x="542" y="202"/>
      <point x="758" y="-30"/>
    </contour>
    <contour>
      <point x="1048" y="78" type="curve" smooth="yes"/>
      <point x="822" y="78"/>
      <point x="662" y="234"/>
      <point x="662" y="480" type="curve" smooth="yes"/>
      <point x="662" y="726"/>
      <point x="822" y="882"/>
      <point x="1048" y="882" type="curve" smooth="yes"/>
      <point x="1274" y="882"/>
      <point x="1434" y="726"/>
      <point x="1434" y="480" type="curve" smooth="yes"/>
      <point x="1434" y="234"/>
      <point x="1274" y="78"/>
    </contour>
  </outline>
</glyph>
<glyph name="lje-cy" format="2">
  <advance width="1688"/>
  <unicode hex="0459"/>
  <outline>
    <contour>
      <point x="82" y="-20" type="line"/>
      <point x="260" y="-40"/>
      <point x="406" y="22"/>
      <point x="406" y="240" type="curve" smooth="yes"/>
      <point x="406" y="856" type="line"/>
      <point x="862" y="856" type="line"/>
      <point x="974" y="960" type="line"/>
      <point x="294" y="960" type="line"/>
      <point x="294" y="260" type="line" smooth="yes"/>
      <point x="294" y="110"/>
      <point x="208" y="72"/>
      <point x="82" y="84" type="curve"/>
    </contour>
    <contour>
      <point x="862" y="0" type="line"/>
      <point x="1220" y="0" type="line" smooth="yes"/>
      <point x="1452" y="0"/>
      <point x="1612" y="112"/>
      <point x="1612" y="306" type="curve" smooth="yes"/>
      <point x="1612" y="502"/>
      <point x="1470" y="616"/>
      <point x="1240" y="616" type="curve" smooth="yes"/>
      <point x="948" y="616" type="line"/>
      <point x="948" y="512" type="line"/>
      <point x="1234" y="512" type="line" smooth="yes"/>
      <point x="1406" y="512"/>
      <point x="1492" y="442"/>
      <point x="1492" y="306" type="curve" smooth="yes"/>
      <point x="1492" y="168"/>
      <point x="1402" y="104"/>
      <point x="1216" y="104" type="curve" smooth="yes"/>
      <point x="974" y="104" type="line"/>
      <point x="974" y="960" type="line"/>
      <point x="862" y="960" type="line"/>
    </contour>
  </outline>
</glyph>
<glyph name="nje-cy" format="2">
  <advance width="1670"/>
  <unicode hex="045A"/>
  <outline>
    <contour>
      <point x="170" y="0" type="line"/>
      <point x="282" y="0" type="line"/>
      <point x="282" y="1000" type="line"/>
      <point x="170" y="858" type="line"/>
    </contour>
    <contour>
      <point x="864" y="0" type="line"/>
      <point x="1222" y="0" type="line" smooth="yes"/>
      <point x="1442" y="0"/>
      <point x="1594" y="104"/>
      <point x="1594" y="286" type="curve" smooth="yes"/>
      <point x="1594" y="470"/>
      <point x="1460" y="576"/>
      <point x="1242" y="576" type="curve" smooth="yes"/>
      <point x="260" y="576" type="line"/>
      <point x="260" y="472" type="line"/>
      <point x="894" y="472" type="line"/>
      <point x="936" y="472" type="line"/>
      <point x="1236" y="472" type="line" smooth="yes"/>
      <point x="1394" y="472"/>
      <point x="1474" y="408"/>
      <point x="1474" y="286" type="curve" smooth="yes"/>
      <point x="1474" y="162"/>
      <point x="1390" y="104"/>
      <point x="1218" y="104" type="curve" smooth="yes"/>
      <point x="976" y="104" type="line"/>
      <point x="976" y="1000" type="line"/>
      <point x="864" y="858" type="line"/>
    </contour>
  </outline>
</glyph>
<glyph name="Izhitsa-cy" format="2">
  <advance width="1276"/>
  <unicode hex="0474"/>
  <outline>
    <contour>
      <point x="590" y="0" type="line"/>
      <point x="690" y="0" type="line"/>
      <point x="1110" y="1100" type="line" smooth="yes"/>
      <point x="1162" y="1234"/>
      <point x="1204" y="1314"/>
      <point x="1350" y="1292" type="curve"/>
      <point x="1350" y="1400" type="line"/>
      <point x="1170" y="1440"/>
      <point x="1078" y="1356"/>
      <point x="984" y="1100" type="curve" smooth="yes"/>
      <point x="642" y="176" type="line"/>
      <point x="160" y="1400" type="line"/>
      <point x="30" y="1400" type="line"/>
    </contour>
  </outline>
</glyph>
<glyph name="izhitsa-cy" format="2">
  <advance width="1046"/>
  <unicode hex="0475"/>
  <outline>
    <contour>
      <point x="424" y="0" type="line"/>
      <point x="546" y="0" type="line"/>
      <point x="782" y="654" type="line" smooth="yes"/>
      <point x="844" y="826"/>
      <point x="906" y="874"/>
      <point x="1024" y="856" type="curve"/>
      <point x="1024" y="970" type="line"/>
      <point x="842" y="1008"/>
      <point x="746" y="906"/>
      <point x="668" y="672" type="curve" smooth="yes"/>
      <point x="488" y="132" type="line"/>
      <point x="172" y="960" type="line"/>
      <point x="42" y="960" type="line"/>
    </contour>
  </outline>
</glyph>
<glyph name="Gheupturn-cy" format="2">
  <advance width="998"/>
  <unicode hex="0490"/>
  <guideline x="440" y="900" angle="51.3402"/>
  <anchor x="504" y="722" name="bar"/>
  <anchor x="316" y="0" name="descender"/>
  <anchor x="564" y="1400" name="top"/>
  <outline>
    <contour>
      <point x="820" y="1292" type="line"/>
      <point x="928" y="1292" type="line"/>
      <point x="928" y="1828" type="line"/>
      <point x="820" y="1692" type="line"/>
    </contour>
    <component base="Ge-cy"/>
  </outline>
</glyph>
<glyph name="enghe-cy" format="2">
  <advance width="1544"/>
  <unicode hex="04A5"/>
  <outline>
    <contour>
      <point x="170" y="0" type="line"/>
      <point x="282" y="0" type="line"/>
      <point x="280" y="460" type="line"/>
      <point x="884" y="460" type="line"/>
      <point x="884" y="0" type="line"/>
      <point x="996" y="0" type="line"/>
      <point x="996" y="856" type="line"/>
      <point x="1486" y="856" type="line"/>
      <point x="1486" y="960" type="line"/>
      <point x="884" y="960" type="line"/>
      <point x="884" y="564" type="line"/>
      <point x="280" y="564" type="line"/>
      <point x="282" y="1000" type="line"/>
      <point x="170" y="858" type="line"/>
    </contour>
  </outline>
</glyph>
<glyph name="ustraight-cy" format="2">
  <advance width="966"/>
  <unicode hex="04AF"/>
  <anchor x="484" y="-80" name="bar"/>
  <outline>
    <contour>
      <point x="428" y="-420" type="line"/>
      <point x="540" y="-420" type="line"/>
      <point x="540" y="0" type="line"/>
      <point x="924" y="960" type="line"/>
      <point x="798" y="960" type="line"/>
      <point x="468" y="94" type="line"/>
      <point x="504" y="94" type="line"/>
      <point x="172" y="960" type="line"/>
      <point x="42" y="960" type="line"/>
      <point x="428" y="0" type="line"/>
    </contour>
  </outline>
</glyph>
<glyph name="chekhakassian-cy" format="2">
  <advance width="1036"/>
  <unicode hex="04CC"/>
  <guideline x="384" y="54" angle="51.3402"/>
  <guideline x="384" y="-200" angle="51.3402"/>
  <anchor x="776" y="0" name="_descender"/>
  <anchor x="474" y="448" name="center"/>
  <anchor x="866" y="0" name="descender"/>
  <anchor x="754" y="0" name="descender_alt"/>
  <anchor x="472" y="960" name="top"/>
  <outline>
    <contour>
      <point x="540" y="-364" type="line"/>
      <point x="644" y="-236" type="line"/>
      <point x="644" y="0" type="line"/>
      <point x="856" y="0" type="line"/>
      <point x="856" y="104" type="line"/>
      <point x="540" y="104" type="line"/>
    </contour>
    <component base="che-cy"/>
  </outline>
</glyph>
<glyph name="Germandbls" format="2">
  <advance width="1388"/>
  <unicode hex="1E9E"/>
  <guideline x="431" y="491" angle="40.0608"/>
  <guideline x="478" y="464" angle="220.7108"/>
  <outline>
    <contour>
      <point x="892" y="-30" type="curve" smooth="yes"/>
      <point x="1148" y="-30"/>
      <point x="1318" y="94"/>
      <point x="1318" y="296" type="curve" smooth="yes"/>
      <point x="1318" y="572"/>
      <point x="862" y="590"/>
      <point x="862" y="814" type="curve" smooth="yes"/>
      <point x="862" y="914"/>
      <point x="922" y="1006"/>
      <point x="1154" y="1222" type="curve"/>
      <point x="1154" y="1318" type="line"/>
      <point x="1052" y="1374"/>
      <point x="922" y="1430"/>
      <point x="738" y="1430" type="curve" smooth="yes"/>
      <point x="414" y="1430"/>
      <point x="198" y="1210"/>
      <point x="198" y="908" type="curve" smooth="yes"/>
      <point x="198" y="0" type="line"/>
      <point x="314" y="0" type="line"/>
      <point x="314" y="908" type="line" smooth="yes"/>
      <point x="314" y="1160"/>
      <point x="466" y="1320"/>
      <point x="738" y="1320" type="curve" smooth="yes"/>
      <point x="874" y="1320"/>
      <point x="954" y="1280"/>
      <point x="1026" y="1250" type="curve"/>
      <point x="824" y="1050"/>
      <point x="732" y="950"/>
      <point x="732" y="804" type="curve" smooth="yes"/>
      <point x="732" y="498"/>
      <point x="1192" y="522"/>
      <point x="1192" y="282" type="curve" smooth="yes"/>
      <point x="1192" y="150"/>
      <point x="1080" y="76"/>
      <point x="904" y="76" type="curve" smooth="yes"/>
      <point x="812" y="76"/>
      <point x="728" y="92"/>
      <point x="654" y="114" type="curve"/>
      <point x="654" y="-4" type="line"/>
      <point x="740" y="-22"/>
      <point x="834" y="-30"/>
    </contour>
  </outline>
</glyph>
<glyph name="quoteright" format="2">
  <advance width="500"/>
  <unicode hex="2019"/>
  <outline>
    <contour>
      <point x="144" y="996" type="line"/>
      <point x="282" y="1084"/>
      <point x="358" y="1186"/>
      <point x="358" y="1294" type="curve" smooth="yes"/>
      <point x="358" y="1370"/>
      <point x="314" y="1420"/>
      <point x="246" y="1420" type="curve" smooth="yes"/>
      <point x="186" y="1420"/>
      <point x="142" y="1378"/>
      <point x="142" y="1322" type="curve" smooth="yes"/>
      <point x="142" y="1258"/>
      <point x="190" y="1214"/>
      <point x="252" y="1218" type="curve"/>
      <point x="244" y="1166"/>
      <point x="164" y="1104"/>
      <point x="86" y="1060" type="curve"/>
    </contour>
  </outline>
</glyph>
<glyph name="dagger" format="2">
  <advance width="1208"/>
  <unicode hex="2020"/>
  <outline>
    <contour>
      <point x="554" y="-212" type="line"/>
      <point x="654" y="-212" type="line"/>
      <point x="654" y="866" type="line"/>
      <point x="1072" y="866" type="line"/>
      <point x="1072" y="964" type="line"/>
      <point x="654" y="964" type="line"/>
      <point x="654" y="1400" type="line"/>
      <point x="554" y="1400" type="line"/>
      <point x="554" y="964" type="line"/>
      <point x="136" y="964" type="line"/>
      <point x="136" y="866" type="line"/>
      <point x="554" y="866" type="line"/>
    </contour>
  </outline>
</glyph>
<glyph name="fraction" format="2">
  <advance width="394"/>
  <unicode hex="2044"/>
  <outline>
    <contour>
      <point x="-160" y="-30" type="line"/>
      <point x="630" y="1390" type="line"/>
      <point x="554" y="1430" type="line"/>
      <point x="-236" y="16" type="line"/>
    </contour>
  </outline>
</glyph>
<glyph name="rupeeIndian" format="2">
  <advance width="1296"/>
  <unicode hex="20B9"/>
  <outline>
    <contour>
      <point x="806" y="0" type="line"/>
      <point x="948" y="0" type="line"/>
      <point x="478" y="616" type="line"/>
      <point x="732" y="640"/>
      <point x="888" y="786"/>
      <point x="888" y="998" type="curve" smooth="yes"/>
      <point x="888" y="1234"/>
      <point x="722" y="1390"/>
      <point x="456" y="1390" type="curve" smooth="yes"/>
      <point x="320" y="1390" type="line"/>
      <point x="320" y="1300" type="line"/>
      <point x="442" y="1300" type="line" smooth="yes"/>
      <point x="670" y="1300"/>
      <point x="778" y="1178"/>
      <point x="778" y="998" type="curve" smooth="yes"/>
      <point x="778" y="826"/>
      <point x="644" y="716"/>
      <point x="418" y="716" type="curve" smooth="yes"/>
      <point x="320" y="716" type="line"/>
      <point x="320" y="642" type="line"/>
    </contour>
    <contour>
      <point x="140" y="992" type="line"/>
      <point x="1156" y="992" type="line"/>
      <point x="1156" y="1092" type="line"/>
      <point x="140" y="1092" type="line"/>
    </contour>
    <contour>
      <point x="140" y="1300" type="line"/>
      <point x="1156" y="1300" type="line"/>
      <point x="1156" y="1400" type="line"/>
      <point x="140" y="1400" type="line"/>
    </contour>
  </outline>
</glyph>
<glyph name="ruble" format="2">
  <advance width="1296"/>
  <unicode hex="20BD"/>
  <guideline x="578" y="190" angle="270"/>
  <outline>
    <contour>
      <point x="140" y="370" type="line"/>
      <point x="1156" y="370" type="line"/>
      <point x="1156" y="470" type="line"/>
      <point x="140" y="470" type="line"/>
    </contour>
    <contour>
      <point x="424" y="0" type="line"/>
      <point x="538" y="0" type="line"/>
      <point x="538" y="1296" type="line"/>
      <point x="766" y="1296" type="line" smooth="yes"/>
      <point x="968" y="1296"/>
      <point x="1052" y="1196"/>
      <point x="1052" y="1042" type="curve" smooth="yes"/>
      <point x="1052" y="870"/>
      <point x="968" y="778"/>
      <point x="724" y="778" type="curve" smooth="yes"/>
      <point x="140" y="778" type="line"/>
      <point x="140" y="678" type="line"/>
      <point x="714" y="678" type="line" smooth="yes"/>
      <point x="1036" y="678"/>
      <point x="1166" y="806"/>
      <point x="1166" y="1046" type="curve" smooth="yes"/>
      <point x="1166" y="1266"/>
      <point x="1020" y="1400"/>
      <point x="756" y="1400" type="curve" smooth="yes"/>
      <point x="424" y="1400" type="line"/>
    </contour>
  </outline>
</glyph>
<glyph name="trademark" format="2">
  <advance width="1874"/>
  <unicode hex="2122"/>
  <anchor x="368" y="984" name="bar"/>
  <anchor x="368" y="560" name="bottom"/>
  <anchor x="368" y="1400" name="top"/>
  <outline>
    <contour>
      <point x="316" y="560" type="line"/>
      <point x="420" y="560" type="line"/>
      <point x="420" y="1304" type="line"/>
      <point x="676" y="1304" type="line"/>
      <point x="676" y="1400" type="line"/>
      <point x="72" y="1400" type="line"/>
      <point x="50" y="1304" type="line"/>
      <point x="316" y="1304" type="line"/>
    </contour>
    <contour>
      <point x="836" y="560" type="line"/>
      <point x="940" y="560" type="line"/>
      <point x="938" y="1210" type="line"/>
      <point x="1242" y="752" type="line"/>
      <point x="1326" y="752" type="line"/>
      <point x="1628" y="1210" type="line"/>
      <point x="1628" y="560" type="line"/>
      <point x="1732" y="560" type="line"/>
      <point x="1732" y="1400" type="line"/>
      <point x="1632" y="1400" type="line"/>
      <point x="1288" y="868" type="line"/>
      <point x="938" y="1400" type="line"/>
      <point x="836" y="1400" type="line"/>
    </contour>
  </outline>
</glyph>
<glyph name="rightArrow" format="2">
  <advance width="1800"/>
  <unicode hex="2192"/>
  <outline>
    <contour>
      <point x="1200" y="170" type="line"/>
      <point x="1762" y="732" type="line"/>
      <point x="1200" y="1294" type="line"/>
      <point x="1132" y="1226" type="line"/>
      <point x="1580" y="780" type="line"/>
      <point x="80" y="780" type="line"/>
      <point x="80" y="684" type="line"/>
      <point x="1580" y="684" type="line"/>
      <point x="1132" y="238" type="line"/>
    </contour>
  </outline>
</glyph>
<glyph name="divisionslash" format="2">
  <advance width="1296"/>
  <unicode hex="2215"/>
  <outline>
    <contour>
      <point x="309" y="0" type="line"/>
      <point x="1088" y="1400" type="line"/>
      <point x="990" y="1400" type="line"/>
      <point x="208" y="0" type="line"/>
    </contour>
  </outline>
</glyph>
<glyph name="notequal" format="2">
  <advance width="1296"/>
  <unicode hex="2260"/>
  <outline>
    <contour>
      <point x="444" y="158" type="line"/>
      <point x="940" y="1132" type="line"/>
      <point x="856" y="1174" type="line"/>
      <point x="358" y="200" type="line"/>
    </contour>
    <contour>
      <point x="180" y="774" type="line"/>
      <point x="1116" y="774" type="line"/>
      <point x="1116" y="870" type="line"/>
      <point x="180" y="870" type="line"/>
    </contour>
    <contour>
      <point x="180" y="450" type="line"/>
      <point x="1116" y="450" type="line"/>
      <point x="1116" y="546" type="line"/>
      <point x="180" y="546" type="line"/>
    </contour>
  </outline>
</glyph>
<glyph name="lozenge" format="2">
  <advance width="1296"/>
  <unicode hex="25CA"/>
  <guideline x="328" y="649" angle="124.6611"/>
  <outline>
    <contour>
      <point x="584" y="0" type="line"/>
      <point x="712" y="0" type="line"/>
      <point x="1176" y="700" type="line"/>
      <point x="712" y="1400" type="line"/>
      <point x="584" y="1400" type="line"/>
      <point x="120" y="700" type="line"/>
    </contour>
    <contour>
      <point x="648" y="90" type="line"/>
      <point x="248" y="700" type="line"/>
      <point x="648" y="1310" type="line"/>
      <point x="1050" y="700" type="line"/>
    </contour>
  </outline>
</glyph>
<glyph name="leftanglebracket-math" format="2">
  <advance width="1296"/>
  <unicode hex="27E8"/>
  <guideline x="509" y="814" angle="55.5267"/>
  <outline>
    <contour>
      <point x="1026" y="-440" type="line"/>
      <point x="1026" y="-282" type="line"/>
      <point x="366" y="664" type="line"/>
      <point x="1026" y="1610" type="line"/>
      <point x="1026" y="1768" type="line"/>
      <point x="254" y="664" type="line"/>
    </contour>
  </outline>
</glyph>
<glyph name="_part.C" format="2">
  <advance width="810"/>
  <anchor x="454" y="392" name="_center"/>
  <anchor x="454" y="0" name="bottom"/>
  <anchor x="454" y="784" name="top"/>
  <outline>
    <contour>
      <point x="478" y="-16" type="curve" smooth="yes"/>
      <point x="574" y="-16"/>
      <point x="660" y="2"/>
      <point x="740" y="52" type="curve"/>
      <point x="740" y="162" type="line"/>
      <point x="664" y="104"/>
      <point x="578" y="84"/>
      <point x="494" y="84" type="curve" smooth="yes"/>
      <point x="294" y="84"/>
      <point x="168" y="198"/>
      <point x="168" y="392" type="curve" smooth="yes"/>
      <point x="168" y="582"/>
      <point x="294" y="700"/>
      <point x="486" y="700" type="curve" smooth="yes"/>
      <point x="578" y="700"/>
      <point x="658" y="678"/>
      <point x="718" y="632" type="curve"/>
      <point x="718" y="742" type="line"/>
      <point x="660" y="778"/>
      <point x="580" y="800"/>
      <point x="478" y="800" type="curve" smooth="yes"/>
      <point x="234" y="800"/>
      <point x="60" y="628"/>
      <point x="60" y="392" type="curve" smooth="yes"/>
      <point x="60" y="146"/>
      <point x="226" y="-16"/>
    </contour>
  </outline>
</glyph>
<glyph name="_part.currencyBar_Manat" format="2">
  <advance width="1424"/>
  <anchor x="786" y="1400" name="_top"/>
  <outline>
    <contour>
      <point x="736" y="160" type="line"/>
      <point x="836" y="160" type="line"/>
      <point x="836" y="1400" type="line"/>
      <point x="736" y="1400" type="line"/>
    </contour>
  </outline>
</glyph>
<glyph name="_part.cy-desc-uc-reversed" format="2">
  <guideline x="-143" y="54" angle="51.5463"/>
  <anchor x="-120" y="0" name="_descender"/>
  <outline>
    <contour>
      <point x="-340" y="-428" type="line"/>
      <point x="-232" y="-292" type="line"/>
      <point x="-232" y="0" type="line"/>
      <point x="-72" y="0" type="line"/>
      <point x="-72" y="108" type="line"/>
      <point x="-340" y="108" type="line"/>
    </contour>
  </outline>
</glyph>
<glyph name="_part.dollar" format="2">
  <advance width="1296"/>
  <anchor x="652" y="0" name="bottom"/>
  <anchor x="666" y="1400" name="top"/>
  <outline>
    <contour>
      <point x="634" y="-30" type="curve" smooth="yes"/>
      <point x="936" y="-30"/>
      <point x="1100" y="128"/>
      <point x="1100" y="360" type="curve" smooth="yes"/>
      <point x="1100" y="548"/>
      <point x="998" y="662"/>
      <point x="792" y="726" type="curve" smooth="yes"/>
      <point x="620" y="780" type="line" smooth="yes"/>
      <point x="430" y="840"/>
      <point x="342" y="910"/>
      <point x="342" y="1050" type="curve" smooth="yes"/>
      <point x="342" y="1228"/>
      <point x="478" y="1324"/>
      <point x="674" y="1324" type="curve" smooth="yes"/>
      <point x="818" y="1324"/>
      <point x="960" y="1282"/>
      <point x="1062" y="1208" type="curve"/>
      <point x="1062" y="1330" type="line"/>
      <point x="967" y="1391"/>
      <point x="839" y="1430"/>
      <point x="696" y="1430" type="curve" smooth="yes"/>
      <point x="424" y="1430"/>
      <point x="234" y="1284"/>
      <point x="234" y="1042" type="curve" smooth="yes"/>
      <point x="234" y="864"/>
      <point x="338" y="754"/>
      <point x="552" y="686" type="curve" smooth="yes"/>
      <point x="710" y="636" type="line" smooth="yes"/>
      <point x="924" y="568"/>
      <point x="992" y="482"/>
      <point x="992" y="352" type="curve" smooth="yes"/>
      <point x="992" y="172"/>
      <point x="850" y="78"/>
      <point x="636" y="78" type="curve" smooth="yes"/>
      <point x="472" y="78"/>
      <point x="322" y="122"/>
      <point x="208" y="204" type="curve"/>
      <point x="208" y="78" type="line"/>
      <point x="324" y="5"/>
      <point x="484" y="-30"/>
    </contour>
  </outline>
</glyph>
<glyph name="_part.guarani" format="2">
  <advance width="1296"/>
  <anchor x="690" y="1400" name="top"/>
  <outline>
    <contour>
      <point x="762" y="-30" type="curve" smooth="yes"/>
      <point x="874" y="-30"/>
      <point x="1060" y="16"/>
      <point x="1144" y="92" type="curve"/>
      <point x="1144" y="684" type="line"/>
      <point x="1036" y="684" type="line"/>
      <point x="1036" y="148" type="line"/>
      <point x="990" y="112"/>
      <point x="894" y="74"/>
      <point x="766" y="74" type="curve" smooth="yes"/>
      <point x="436" y="74"/>
      <point x="216" y="310"/>
      <point x="216" y="700" type="curve" smooth="yes"/>
      <point x="216" y="1080"/>
      <point x="422" y="1322"/>
      <point x="734" y="1322" type="curve" smooth="yes"/>
      <point x="846" y="1322"/>
      <point x="972" y="1288"/>
      <point x="1074" y="1220" type="curve"/>
      <point x="1074" y="1338" type="line"/>
      <point x="980" y="1400"/>
      <point x="860" y="1430"/>
      <point x="742" y="1430" type="curve" smooth="yes"/>
      <point x="364" y="1430"/>
      <point x="96" y="1132"/>
      <point x="96" y="696" type="curve" smooth="yes"/>
      <point x="96" y="264"/>
      <point x="374" y="-30"/>
    </contour>
  </outline>
</glyph>
<glyph name="_part.hryvnia" format="2">
  <advance width="1296"/>
  <anchor x="648" y="1400" name="top"/>
  <outline>
    <contour>
      <point x="646" y="-30" type="curve" smooth="yes"/>
      <point x="800" y="-30"/>
      <point x="962" y="12"/>
      <point x="1080" y="80" type="curve"/>
      <point x="1080" y="204" type="line"/>
      <point x="962" y="124"/>
      <point x="812" y="78"/>
      <point x="644" y="78" type="curve" smooth="yes"/>
      <point x="444" y="78"/>
      <point x="312" y="176"/>
      <point x="312" y="334" type="curve" smooth="yes"/>
      <point x="312" y="476"/>
      <point x="400" y="538"/>
      <point x="596" y="638" type="curve" smooth="yes"/>
      <point x="702" y="692" type="line" smooth="yes"/>
      <point x="904" y="794"/>
      <point x="1032" y="878"/>
      <point x="1032" y="1070" type="curve" smooth="yes"/>
      <point x="1032" y="1304"/>
      <point x="834" y="1430"/>
      <point x="572" y="1430" type="curve" smooth="yes"/>
      <point x="432" y="1430"/>
      <point x="302" y="1392"/>
      <point x="206" y="1330" type="curve"/>
      <point x="206" y="1208" type="line"/>
      <point x="310" y="1284"/>
      <point x="452" y="1326"/>
      <point x="596" y="1326" type="curve" smooth="yes"/>
      <point x="792" y="1326"/>
      <point x="926" y="1220"/>
      <point x="926" y="1068" type="curve" smooth="yes"/>
      <point x="926" y="922"/>
      <point x="844" y="874"/>
      <point x="646" y="776" type="curve" smooth="yes"/>
      <point x="524" y="716" type="line" smooth="yes"/>
      <point x="340" y="626"/>
      <point x="204" y="538"/>
      <point x="204" y="334" type="curve" smooth="yes"/>
      <point x="204" y="136"/>
      <point x="360" y="-30"/>
    </contour>
  </outline>
</glyph>
<glyph name="brevecomb.case" format="2">
  <anchor x="-788" y="1398" name="_top"/>
  <anchor x="-788" y="1812" name="top"/>
  <outline>
    <contour>
      <point x="-788" y="1582" type="curve" smooth="yes"/>
      <point x="-594" y="1582"/>
      <point x="-448" y="1718"/>
      <point x="-454" y="1904" type="curve"/>
      <point x="-558" y="1904" type="line"/>
      <point x="-550" y="1768"/>
      <point x="-642" y="1676"/>
      <point x="-788" y="1676" type="curve" smooth="yes"/>
      <point x="-934" y="1676"/>
      <point x="-1030" y="1768"/>
      <point x="-1024" y="1904" type="curve"/>
      <point x="-1126" y="1904" type="line"/>
      <point x="-1134" y="1718"/>
      <point x="-990" y="1582"/>
    </contour>
  </outline>
</glyph>
<glyph name="breveinvertedcomb.narrow" format="2">
  <anchor x="-584" y="960" name="_top"/>
  <outline>
    <contour>
      <point x="-868" y="1170" type="curve"/>
      <point x="-768" y="1170" type="line"/>
      <point x="-774" y="1318"/>
      <point x="-698" y="1418"/>
      <point x="-584" y="1418" type="curve" smooth="yes"/>
      <point x="-472" y="1418"/>
      <point x="-396" y="1318"/>
      <point x="-404" y="1170" type="curve"/>
      <point x="-302" y="1170" type="line"/>
      <point x="-298" y="1366"/>
      <point x="-418" y="1514"/>
      <point x="-584" y="1514" type="curve" smooth="yes"/>
      <point x="-754" y="1514"/>
      <point x="-874" y="1368"/>
    </contour>
  </outline>
</glyph>
<glyph name="caroncomb.alt_case" format="2">
  <anchor x="-738" y="1440" name="_caron"/>
  <outline>
    <contour>
      <point x="-628" y="992" type="line"/>
      <point x="-542" y="992" type="line"/>
      <point x="-496" y="1440" type="line"/>
      <point x="-628" y="1440" type="line"/>
    </contour>
  </outline>
</glyph>
<glyph name="dieresiscomb.case" format="2">
  <anchor x="-790" y="1398" name="_top"/>
  <anchor x="-790" y="1704" name="top"/>
  <outline>
    <contour>
      <point x="-956" y="1584" type="curve" smooth="yes"/>
      <point x="-902" y="1584"/>
      <point x="-860" y="1626"/>
      <point x="-860" y="1676" type="curve" smooth="yes"/>
      <point x="-860" y="1726"/>
      <point x="-904" y="1766"/>
      <point x="-956" y="1766" type="curve" smooth="yes"/>
      <point x="-1008" y="1766"/>
      <point x="-1052" y="1726"/>
      <point x="-1052" y="1676" type="curve" smooth="yes"/>
      <point x="-1052" y="1626"/>
      <point x="-1010" y="1584"/>
    </contour>
    <contour>
      <point x="-622" y="1584" type="curve" smooth="yes"/>
      <point x="-570" y="1584"/>
      <point x="-526" y="1626"/>
      <point x="-526" y="1676" type="curve" smooth="yes"/>
      <point x="-526" y="1726"/>
      <point x="-570" y="1766"/>
      <point x="-622" y="1766" type="curve" smooth="yes"/>
      <point x="-676" y="1766"/>
      <point x="-718" y="1724"/>
      <point x="-718" y="1676" type="curve" smooth="yes"/>
      <point x="-718" y="1626"/>
      <point x="-676" y="1584"/>
    </contour>
  </outline>
</glyph>
<glyph name="dieresiscomb.narrow" format="2">
  <anchor x="-586" y="960" name="_top"/>
  <anchor x="-586" y="1284" name="top"/>
  <outline>
    <contour>
      <point x="-708" y="1162" type="curve" smooth="yes"/>
      <point x="-656" y="1162"/>
      <point x="-614" y="1204"/>
      <point x="-614" y="1256" type="curve" smooth="yes"/>
      <point x="-614" y="1308"/>
      <point x="-656" y="1350"/>
      <point x="-708" y="1350" type="curve" smooth="yes"/>
      <point x="-760" y="1350"/>
      <point x="-802" y="1308"/>
      <point x="-802" y="1256" type="curve" smooth="yes"/>
      <point x="-802" y="1204"/>
      <point x="-760" y="1162"/>
    </contour>
    <contour>
      <point x="-464" y="1162" type="curve" smooth="yes"/>
      <point x="-412" y="1162"/>
      <point x="-370" y="1204"/>
      <point x="-370" y="1256" type="curve" smooth="yes"/>
      <point x="-370" y="1308"/>
      <point x="-412" y="1350"/>
      <point x="-464" y="1350" type="curve" smooth="yes"/>
      <point x="-516" y="1350"/>
      <point x="-558" y="1308"/>
      <point x="-558" y="1256" type="curve" smooth="yes"/>
      <point x="-558" y="1204"/>
      <point x="-516" y="1162"/>
    </contour>
  </outline>
</glyph>
<glyph name="dotaccentcomb.case" format="2">
  <anchor x="-788" y="1398" name="_top"/>
  <anchor x="-788" y="1704" name="top"/>
  <outline>
    <contour>
      <point x="-788" y="1584" type="curve" smooth="yes"/>
      <point x="-736" y="1584"/>
      <point x="-692" y="1626"/>
      <point x="-692" y="1676" type="curve" smooth="yes"/>
      <point x="-692" y="1726"/>
      <point x="-736" y="1766"/>
      <point x="-788" y="1766" type="curve" smooth="yes"/>
      <point x="-840" y="1766"/>
      <point x="-884" y="1726"/>
      <point x="-884" y="1676" type="curve" smooth="yes"/>
      <point x="-884" y="1626"/>
      <point x="-842" y="1584"/>
    </contour>
  </outline>
</glyph>
<glyph name="four.numr" format="2">
  <advance width="844"/>
  <outline>
    <contour>
      <point x="528" y="490" type="line"/>
      <point x="624" y="490" type="line"/>
      <point x="624" y="686" type="line"/>
      <point x="778" y="686" type="line"/>
      <point x="778" y="778" type="line"/>
      <point x="624" y="778" type="line"/>
      <point x="624" y="994" type="line"/>
      <point x="528" y="994" type="line"/>
      <point x="528" y="778" type="line"/>
      <point x="162" y="778" type="line"/>
      <point x="520" y="1400" type="line"/>
      <point x="408" y="1400" type="line"/>
      <point x="48" y="770" type="line"/>
      <point x="48" y="686" type="line"/>
      <point x="528" y="686" type="line"/>
    </contour>
  </outline>
</glyph>
<glyph name="g.ss01" format="2">
  <advance width="1254"/>
  <anchor x="586" y="960" name="top"/>
  <outline>
    <contour>
      <point x="582" y="-450" type="curve" smooth="yes"/>
      <point x="918" y="-450"/>
      <point x="1084" y="-262"/>
      <point x="1084" y="48" type="curve" smooth="yes"/>
      <point x="1084" y="1000" type="line"/>
      <point x="932" y="808" type="line"/>
      <point x="932" y="706" type="line"/>
      <point x="990" y="770" type="line"/>
      <point x="908" y="896"/>
      <point x="786" y="990"/>
      <point x="586" y="990" type="curve" smooth="yes"/>
      <point x="284" y="990"/>
      <point x="80" y="758"/>
      <point x="80" y="480" type="curve" smooth="yes"/>
      <point x="80" y="202"/>
      <point x="284" y="-30"/>
      <point x="586" y="-30" type="curve" smooth="yes"/>
      <point x="786" y="-30"/>
      <point x="908" y="64"/>
      <point x="990" y="190" type="curve"/>
      <point x="972" y="214" type="line"/>
      <point x="972" y="6" type="line" smooth="yes"/>
      <point x="972" y="-198"/>
      <point x="834" y="-342"/>
      <point x="584" y="-342" type="curve" smooth="yes"/>
      <point x="482" y="-342"/>
      <point x="366" y="-318"/>
      <point x="256" y="-266" type="curve"/>
      <point x="256" y="-389" type="line"/>
      <point x="364" y="-433"/>
      <point x="479" y="-450"/>
    </contour>
    <contour>
      <point x="586" y="78" type="curve" smooth="yes"/>
      <point x="360" y="78"/>
      <point x="200" y="234"/>
      <point x="200" y="480" type="curve" smooth="yes"/>
      <point x="200" y="726"/>
      <point x="360" y="882"/>
      <point x="586" y="882" type="curve" smooth="yes"/>
      <point x="812" y="882"/>
      <point x="972" y="726"/>
      <point x="972" y="480" type="curve" smooth="yes"/>
      <point x="972" y="234"/>
      <point x="812" y="78"/>
    </contour>
  </outline>
</glyph>
<glyph name="ge-cy.loclBGR" format="2">
  <advance width="962"/>
  <anchor x="490" y="0" name="bottom"/>
  <anchor x="472" y="960" name="top"/>
  <outline>
    <contour>
      <point x="498" y="-30" type="curve" smooth="yes"/>
      <point x="622" y="-30"/>
      <point x="748" y="12"/>
      <point x="836" y="76" type="curve"/>
      <point x="836" y="190" type="line"/>
      <point x="752" y="118"/>
      <point x="626" y="78"/>
      <point x="500" y="78" type="curve" smooth="yes"/>
      <point x="350" y="78"/>
      <point x="254" y="148"/>
      <point x="254" y="248" type="curve" smooth="yes"/>
      <point x="254" y="388"/>
      <point x="380" y="412"/>
      <point x="512" y="450" type="curve" smooth="yes"/>
      <point x="654" y="490"/>
      <point x="806" y="558"/>
      <point x="806" y="730" type="curve" smooth="yes"/>
      <point x="806" y="894"/>
      <point x="660" y="1000"/>
      <point x="464" y="1000" type="curve" smooth="yes"/>
      <point x="344" y="1000"/>
      <point x="232" y="964"/>
      <point x="146" y="900" type="curve"/>
      <point x="146" y="786" type="line"/>
      <point x="218" y="852"/>
      <point x="344" y="892"/>
      <point x="466" y="892" type="curve" smooth="yes"/>
      <point x="594" y="892"/>
      <point x="686" y="824"/>
      <point x="686" y="730" type="curve" smooth="yes"/>
      <point x="686" y="608"/>
      <point x="588" y="576"/>
      <point x="458" y="538" type="curve" smooth="yes"/>
      <point x="308" y="494"/>
      <point x="134" y="428"/>
      <point x="134" y="248" type="curve" smooth="yes"/>
      <point x="134" y="70"/>
      <point x="280" y="-30"/>
    </contour>
  </outline>
</glyph>
<glyph name="hookabovecomb.case" format="2">
  <anchor x="-788" y="1398" name="_top"/>
  <outline>
    <contour>
      <point x="-850" y="1592" type="curve"/>
      <point x="-756" y="1592" type="line"/>
      <point x="-792" y="1664"/>
      <point x="-780" y="1686"/>
      <point x="-686" y="1724" type="curve" smooth="yes"/>
      <point x="-582" y="1766"/>
      <point x="-538" y="1798"/>
      <point x="-538" y="1874" type="curve" smooth="yes"/>
      <point x="-538" y="1960"/>
      <point x="-644" y="2024"/>
      <point x="-786" y="2024" type="curve" smooth="yes"/>
      <point x="-864" y="2024"/>
      <point x="-942" y="2010"/>
      <point x="-1006" y="1986" type="curve"/>
      <point x="-1006" y="1904" type="line"/>
      <point x="-948" y="1928"/>
      <point x="-858" y="1942"/>
      <point x="-792" y="1942" type="curve" smooth="yes"/>
      <point x="-704" y="1942"/>
      <point x="-634" y="1910"/>
      <point x="-634" y="1856" type="curve" smooth="yes"/>
      <point x="-634" y="1820"/>
      <point x="-648" y="1804"/>
      <point x="-756" y="1768" type="curve" smooth="yes"/>
      <point x="-868" y="1730"/>
      <point x="-896" y="1676"/>
    </contour>
  </outline>
</glyph>
<glyph name="horncomb.alt_case" format="2">
  <anchor x="-350" y="1400" name="_horn"/>
  <outline>
    <contour>
      <point x="-250" y="1188" type="curve" smooth="yes"/>
      <point x="-120" y="1188"/>
      <point x="-52" y="1278"/>
      <point x="-52" y="1382" type="curve" smooth="yes"/>
      <point x="-52" y="1438"/>
      <point x="-73" y="1502"/>
      <point x="-115" y="1560" type="curve"/>
      <point x="-224" y="1560" type="line"/>
      <point x="-174" y="1484"/>
      <point x="-160" y="1418"/>
      <point x="-160" y="1380" type="curve" smooth="yes"/>
      <point x="-160" y="1316"/>
      <point x="-192" y="1270"/>
      <point x="-270" y="1270" type="curve" smooth="yes"/>
      <point x="-318" y="1270"/>
      <point x="-396" y="1300"/>
      <point x="-458" y="1330" type="curve"/>
      <point x="-458" y="1256" type="line"/>
      <point x="-394" y="1222"/>
      <point x="-314" y="1188"/>
    </contour>
  </outline>
</glyph>
<glyph name="horncomb.case" format="2">
  <anchor x="-436" y="1400" name="_horn"/>
  <outline>
    <contour>
      <point x="-296" y="1228" type="curve" smooth="yes"/>
      <point x="-166" y="1228"/>
      <point x="-98" y="1308"/>
      <point x="-98" y="1402" type="curve" smooth="yes"/>
      <point x="-98" y="1458"/>
      <point x="-124" y="1522"/>
      <point x="-176" y="1580" type="curve"/>
      <point x="-270" y="1540" type="line"/>
      <point x="-220" y="1480"/>
      <point x="-206" y="1430"/>
      <point x="-206" y="1400" type="curve" smooth="yes"/>
      <point x="-206" y="1348"/>
      <point x="-238" y="1310"/>
      <point x="-316" y="1310" type="curve" smooth="yes"/>
      <point x="-412" y="1310"/>
      <point x="-622" y="1430"/>
      <point x="-838" y="1430" type="curve"/>
      <point x="-838" y="1362" type="line"/>
      <point x="-610" y="1362"/>
      <point x="-422" y="1228"/>
    </contour>
  </outline>
</glyph>
<glyph name="hungarumlautcomb.case" format="2">
  <anchor x="-788" y="1398" name="_top"/>
  <outline>
    <contour>
      <point x="-668" y="1592" type="line"/>
      <point x="-560" y="1592" type="line"/>
      <point x="-358" y="1904" type="line"/>
      <point x="-478" y="1904" type="line"/>
    </contour>
    <contour>
      <point x="-1018" y="1592" type="line"/>
      <point x="-910" y="1592" type="line"/>
      <point x="-708" y="1904" type="line"/>
      <point x="-828" y="1904" type="line"/>
    </contour>
  </outline>
</glyph>
<glyph name="nine.ss02" format="2">
  <advance width="1228"/>
  <outline>
    <contour>
      <point x="318" y="0" type="line"/>
      <point x="460" y="0" type="line"/>
      <point x="892" y="558" type="line" smooth="yes"/>
      <point x="1034" y="740"/>
      <point x="1088" y="848"/>
      <point x="1088" y="988" type="curve" smooth="yes"/>
      <point x="1088" y="1224"/>
      <point x="870" y="1430"/>
      <point x="594" y="1430" type="curve" smooth="yes"/>
      <point x="308" y="1430"/>
      <point x="100" y="1232"/>
      <point x="100" y="972" type="curve" smooth="yes"/>
      <point x="100" y="726"/>
      <point x="314" y="538"/>
      <point x="590" y="538" type="curve" smooth="yes"/>
      <point x="674" y="538"/>
      <point x="764" y="560"/>
      <point x="846" y="614" type="curve"/>
      <point x="812" y="620" type="line"/>
    </contour>
    <contour>
      <point x="594" y="640" type="curve" smooth="yes"/>
      <point x="384" y="640"/>
      <point x="224" y="786"/>
      <point x="224" y="978" type="curve" smooth="yes"/>
      <point x="224" y="1176"/>
      <point x="376" y="1318"/>
      <point x="588" y="1318" type="curve" smooth="yes"/>
      <point x="804" y="1318"/>
      <point x="964" y="1172"/>
      <point x="964" y="978" type="curve" smooth="yes"/>
      <point x="964" y="784"/>
      <point x="806" y="640"/>
    </contour>
  </outline>
</glyph>
<glyph name="one.tnum" format="2">
  <advance width="1296"/>
  <outline>
    <contour>
      <point x="210" y="0" type="line"/>
      <point x="1154" y="0" type="line"/>
      <point x="1154" y="108" type="line"/>
      <point x="760" y="108" type="line"/>
      <point x="760" y="1430" type="line"/>
      <point x="750" y="1430" type="line"/>
      <point x="240" y="1234" type="line"/>
      <point x="240" y="1134" type="line"/>
      <point x="648" y="1288" type="line"/>
      <point x="648" y="108" type="line"/>
      <point x="210" y="108" type="line"/>
    </contour>
  </outline>
</glyph>
<glyph name="periodcentered.loclCAT.case" format="2">
  <outline>
    <contour>
      <point x="-270" y="630" type="curve" smooth="yes"/>
      <point x="-208" y="630"/>
      <point x="-160" y="674"/>
      <point x="-160" y="734" type="curve" smooth="yes"/>
      <point x="-160" y="794"/>
      <point x="-208" y="838"/>
      <point x="-270" y="838" type="curve" smooth="yes"/>
      <point x="-332" y="838"/>
      <point x="-380" y="794"/>
      <point x="-380" y="734" type="curve" smooth="yes"/>
      <point x="-380" y="674"/>
      <point x="-332" y="630"/>
    </contour>
  </outline>
</glyph>
<glyph name="ringcomb.case" format="2">
  <anchor x="-838" y="1400" name="_top"/>
  <anchor x="-838" y="1888" name="top"/>
  <outline>
    <contour>
      <point x="-838" y="1462" type="curve" smooth="yes"/>
      <point x="-688" y="1462"/>
      <point x="-562" y="1578"/>
      <point x="-562" y="1726" type="curve" smooth="yes"/>
      <point x="-562" y="1874"/>
      <point x="-688" y="1990"/>
      <point x="-838" y="1990" type="curve" smooth="yes"/>
      <point x="-986" y="1990"/>
      <point x="-1114" y="1874"/>
      <point x="-1114" y="1726" type="curve" smooth="yes"/>
      <point x="-1114" y="1578"/>
      <point x="-986" y="1462"/>
    </contour>
    <contour>
      <point x="-838" y="1554" type="curve" smooth="yes"/>
      <point x="-940" y="1554"/>
      <point x="-1018" y="1626"/>
      <point x="-1018" y="1726" type="curve" smooth="yes"/>
      <point x="-1018" y="1826"/>
      <point x="-940" y="1898"/>
      <point x="-838" y="1898" type="curve" smooth="yes"/>
      <point x="-736" y="1898"/>
      <point x="-658" y="1826"/>
      <point x="-658" y="1726" type="curve" smooth="yes"/>
      <point x="-658" y="1626"/>
      <point x="-736" y="1554"/>
    </contour>
  </outline>
</glyph>
<glyph name="softsign-cy.loclBGR" format="2">
  <advance width="1067"/>
  <guideline x="-106" y="-82" angle="0"/>
  <outline>
    <contour>
      <point x="567" y="-20" type="curve" smooth="yes"/>
      <point x="821" y="-20"/>
      <point x="987" y="142"/>
      <point x="987" y="342" type="curve" smooth="yes"/>
      <point x="987" y="540"/>
      <point x="817" y="704"/>
      <point x="581" y="704" type="curve" smooth="yes"/>
      <point x="443" y="704"/>
      <point x="305" y="642"/>
      <point x="253" y="550" type="curve"/>
      <point x="267" y="526" type="line"/>
      <point x="267" y="1000" type="line"/>
      <point x="155" y="858" type="line"/>
      <point x="155" y="344" type="line" smooth="yes"/>
      <point x="155" y="120"/>
      <point x="329" y="-20"/>
    </contour>
    <contour>
      <point x="567" y="82" type="curve" smooth="yes"/>
      <point x="395" y="82"/>
      <point x="269" y="182"/>
      <point x="269" y="342" type="curve" smooth="yes"/>
      <point x="269" y="500"/>
      <point x="395" y="600"/>
      <point x="567" y="600" type="curve" smooth="yes"/>
      <point x="741" y="600"/>
      <point x="869" y="500"/>
      <point x="869" y="342" type="curve" smooth="yes"/>
      <point x="869" y="184"/>
      <point x="741" y="82"/>
    </contour>
  </outline>
</glyph>
<glyph name="tildecomb.case" format="2">
  <anchor x="-788" y="1398" name="_top"/>
  <anchor x="-788" y="1758" name="top"/>
  <outline>
    <contour>
      <point x="-1066" y="1632" type="line"/>
      <point x="-1036" y="1710"/>
      <point x="-994" y="1748"/>
      <point x="-938" y="1748" type="curve" smooth="yes"/>
      <point x="-848" y="1748"/>
      <point x="-752" y="1652"/>
      <point x="-640" y="1652" type="curve" smooth="yes"/>
      <point x="-552" y="1652"/>
      <point x="-478" y="1714"/>
      <point x="-434" y="1818" type="curve"/>
      <point x="-510" y="1864" type="line"/>
      <point x="-538" y="1792"/>
      <point x="-580" y="1748"/>
      <point x="-638" y="1748" type="curve" smooth="yes"/>
      <point x="-728" y="1748"/>
      <point x="-824" y="1846"/>
      <point x="-938" y="1846" type="curve" smooth="yes"/>
      <point x="-1030" y="1846"/>
      <point x="-1100" y="1778"/>
      <point x="-1142" y="1676" type="curve"/>
    </contour>
  </outline>
</glyph>
<glyph name="tildecomb.narrow" format="2">
  <anchor x="-584" y="960" name="_top"/>
  <anchor x="-584" y="1344" name="top"/>
  <outline>
    <contour>
      <point x="-816" y="1216" type="line"/>
      <point x="-792" y="1292"/>
      <point x="-758" y="1340"/>
      <point x="-708" y="1340" type="curve" smooth="yes"/>
      <point x="-634" y="1340"/>
      <point x="-556" y="1236"/>
      <point x="-460" y="1236" type="curve" smooth="yes"/>
      <point x="-386" y="1236"/>
      <point x="-322" y="1302"/>
      <point x="-288" y="1414" type="curve"/>
      <point x="-354" y="1460" type="line"/>
      <point x="-376" y="1382"/>
      <point x="-414" y="1334"/>
      <point x="-460" y="1334" type="curve" smooth="yes"/>
      <point x="-534" y="1334"/>
      <point x="-612" y="1440"/>
      <point x="-708" y="1440" type="curve" smooth="yes"/>
      <point x="-788" y="1440"/>
      <point x="-846" y="1366"/>
      <point x="-882" y="1260" type="curve"/>
    </contour>
  </outline>
</glyph>
<glyph name="ve-cy.loclBGR" format="2">
  <advance width="1157"/>
  <outline>
    <contour>
      <point x="593" y="-30" type="curve" smooth="yes"/>
      <point x="875" y="-30"/>
      <point x="1055" y="142"/>
      <point x="1057" y="374" type="curve" smooth="yes"/>
      <point x="1059" y="558"/>
      <point x="953" y="708"/>
      <point x="781" y="758" type="curve"/>
      <point x="915" y="804"/>
      <point x="1019" y="958"/>
      <point x="1019" y="1108" type="curve" smooth="yes"/>
      <point x="1019" y="1328"/>
      <point x="859" y="1470"/>
      <point x="607" y="1470" type="curve" smooth="yes"/>
      <point x="333" y="1470"/>
      <point x="155" y="1282"/>
      <point x="155" y="990" type="curve" smooth="yes"/>
      <point x="155" y="394" type="line" smooth="yes"/>
      <point x="155" y="130"/>
      <point x="323" y="-30"/>
    </contour>
    <contour>
      <point x="593" y="78" type="curve" smooth="yes"/>
      <point x="389" y="78"/>
      <point x="267" y="206"/>
      <point x="267" y="428" type="curve" smooth="yes"/>
      <point x="267" y="990" type="line" smooth="yes"/>
      <point x="267" y="1232"/>
      <point x="383" y="1362"/>
      <point x="601" y="1362" type="curve" smooth="yes"/>
      <point x="789" y="1362"/>
      <point x="899" y="1262"/>
      <point x="899" y="1090" type="curve" smooth="yes"/>
      <point x="899" y="926"/>
      <point x="753" y="800"/>
      <point x="559" y="800" type="curve" smooth="yes"/>
      <point x="223" y="800" type="line"/>
      <point x="223" y="694" type="line"/>
      <point x="569" y="694" type="line" smooth="yes"/>
      <point x="797" y="694"/>
      <point x="935" y="574"/>
      <point x="935" y="374" type="curve" smooth="yes"/>
      <point x="935" y="192"/>
      <point x="819" y="78"/>
    </contour>
  </outline>
</glyph>
<glyph name="ze-cy.loclBGR" format="2">
  <advance width="996"/>
  <guideline x="102" y="147" angle="90"/>
  <guideline x="102" y="147" angle="257.7352"/>
  <anchor x="438" y="-420" name="bottom"/>
  <anchor x="426" y="960" name="top"/>
  <outline>
    <contour>
      <point x="420" y="-450" type="curve" smooth="yes"/>
      <point x="676" y="-450"/>
      <point x="876" y="-288"/>
      <point x="878" y="-56" type="curve" smooth="yes"/>
      <point x="880" y="136"/>
      <point x="762" y="266"/>
      <point x="608" y="306" type="curve"/>
      <point x="734" y="348"/>
      <point x="840" y="490"/>
      <point x="840" y="640" type="curve" smooth="yes"/>
      <point x="840" y="846"/>
      <point x="682" y="988"/>
      <point x="432" y="988" type="curve" smooth="yes"/>
      <point x="298" y="988"/>
      <point x="174" y="944"/>
      <point x="80" y="868" type="curve"/>
      <point x="80" y="748" type="line"/>
      <point x="172" y="830"/>
      <point x="292" y="880"/>
      <point x="426" y="880" type="curve" smooth="yes"/>
      <point x="610" y="880"/>
      <point x="720" y="784"/>
      <point x="720" y="622" type="curve" smooth="yes"/>
      <point x="720" y="458"/>
      <point x="574" y="346"/>
      <point x="392" y="346" type="curve" smooth="yes"/>
      <point x="216" y="346" type="line"/>
      <point x="192" y="242" type="line"/>
      <point x="400" y="242" type="line" smooth="yes"/>
      <point x="600" y="242"/>
      <point x="758" y="152"/>
      <point x="758" y="-56" type="curve" smooth="yes"/>
      <point x="758" y="-236"/>
      <point x="624" y="-342"/>
      <point x="420" y="-342" type="curve" smooth="yes"/>
      <point x="268" y="-342"/>
      <point x="130" y="-290"/>
      <point x="40" y="-200" type="curve"/>
      <point x="40" y="-332" type="line"/>
      <point x="142" y="-408"/>
      <point x="278" y="-450"/>
    </contour>
  </outline>
</glyph>
<glyph name="zhe-cy.loclBGR" format="2">
  <advance width="1466"/>
  <outline>
    <contour>
      <point x="678" y="0" type="line"/>
      <point x="790" y="0" type="line"/>
      <point x="790" y="460" type="line"/>
      <point x="1046" y="460" type="line"/>
      <point x="1046" y="564" type="line"/>
      <point x="790" y="564" type="line"/>
      <point x="790" y="1480" type="line"/>
      <point x="678" y="1338" type="line"/>
      <point x="678" y="564" type="line"/>
      <point x="420" y="564" type="line"/>
      <point x="420" y="460" type="line"/>
      <point x="678" y="460" type="line"/>
    </contour>
    <contour>
      <point x="60" y="0" type="line"/>
      <point x="194" y="0" type="line"/>
      <point x="502" y="518" type="line"/>
      <point x="246" y="960" type="line"/>
      <point x="122" y="960" type="line"/>
      <point x="378" y="514" type="line"/>
    </contour>
    <contour>
      <point x="1268" y="0" type="line"/>
      <point x="1406" y="0" type="line"/>
      <point x="1088" y="522" type="line"/>
      <point x="1344" y="960" type="line"/>
      <point x="1224" y="960" type="line"/>
      <point x="964" y="518" type="line"/>
    </contour>
  </outline>
</glyph>
